<svg width="51" height="50" viewBox="0 0 51 50" fill="none" xmlns="http://www.w3.org/2000/svg">
<path d="M25 0C11.2069 0 0 11.2069 0 25C0 25.5172 0.344828 25.8621 0.862069 25.8621H2.58621V27.069C2.58621 29.1379 4.22414 30.7759 6.2931 30.7759C8.36207 30.7759 10 29.1379 10 27.069V22.931C10 20.8621 8.36207 19.2241 6.2931 19.2241C4.22414 19.2241 2.58621 20.8621 2.58621 22.931V24.1379H1.72414C2.15517 11.7241 12.4138 1.72414 25 1.72414C37.5862 1.72414 47.8448 11.7241 48.2759 24.1379H47.4138V22.931C47.4138 20.8621 45.7759 19.2241 43.7069 19.2241C41.6379 19.2241 40 20.8621 40 22.931V27.069C40 28.7931 41.2069 30.2586 42.8448 30.6897C42.5 43.7069 33.1897 45.9483 30.431 46.3793C30.0862 45.3448 29.0517 44.6552 27.931 44.6552H22.2414C20.7759 44.6552 19.569 45.8621 19.569 47.3276C19.569 48.7931 20.6897 50 22.1552 50H27.8448C29.0517 50 30.0862 49.2241 30.431 48.1034C33.2759 47.6724 44.2241 45.1724 44.569 30.6897C46.2069 30.3448 47.5 28.7931 47.5 27.069V25.8621H49.2241C49.7414 25.8621 50.0862 25.5172 50.0862 25C50 11.2069 38.7931 0 25 0ZM4.31034 22.931C4.31034 21.8103 5.17241 20.9483 6.2931 20.9483C7.41379 20.9483 8.27586 21.8103 8.27586 22.931V27.069C8.27586 28.1897 7.41379 29.0517 6.2931 29.0517C5.17241 29.0517 4.31034 28.1897 4.31034 27.069V22.931ZM27.8448 48.2759H22.1552C21.6379 48.2759 21.2069 47.8448 21.2069 47.3276C21.2069 46.8103 21.6379 46.3793 22.1552 46.3793H27.8448C28.3621 46.3793 28.7931 46.8103 28.7931 47.3276C28.7931 47.8448 28.3621 48.2759 27.8448 48.2759ZM45.6897 27.069C45.6897 28.1897 44.8276 29.0517 43.7069 29.0517C42.5862 29.0517 41.7241 28.1897 41.7241 27.069V22.931C41.7241 21.8103 42.5862 20.9483 43.7069 20.9483C44.8276 20.9483 45.6897 21.8103 45.6897 22.931V27.069Z" fill="#01556A"/>
</svg>
