<svg width="79" height="67" viewBox="0 0 79 67" fill="none" xmlns="http://www.w3.org/2000/svg">
<path d="M15.4055 33.397H18.3876V36.977H15.4055V33.397Z" fill="#01556A"/>
<path d="M32.8009 26.7382L33.2979 29.7202C38.567 28.9242 43.9329 29.2232 48.903 30.7142L49.699 27.8332C44.3329 26.1403 38.4658 25.8413 32.8009 26.7382Z" fill="#01556A"/>
<path d="M42.4419 15.7023C46.814 15.7023 50.293 12.2233 50.293 7.85117C50.293 3.47907 46.814 0 42.4419 0C38.0698 0 34.5907 3.47907 34.5907 7.85117C34.4898 12.2233 38.0698 15.7023 42.4419 15.7023ZM42.4419 2.97789C45.1249 2.97789 47.311 5.16394 47.311 7.84699C47.311 10.5301 45.1249 12.7161 42.4419 12.7161C39.7588 12.7161 37.5728 10.5301 37.5728 7.84699C37.5728 5.16781 39.6618 2.97789 42.4419 2.97789Z" fill="#01556A"/>
<path d="M77.4354 37.9713C76.6394 36.5812 75.0513 35.4862 73.2613 35.1872C71.8713 34.9892 70.5782 35.0863 69.3862 35.1872H69.0872C68.6912 35.1872 68.1942 35.2882 67.6972 35.2882C67.4992 34.4922 67.2002 33.5991 66.9012 32.9041C65.9072 30.5201 64.2181 28.431 61.7331 26.342C56.565 21.8689 49.8048 20.2769 45.1339 19.6828C39.4688 18.9878 33.7027 19.3839 28.2356 19.8809C27.8395 19.4848 27.4396 18.9878 27.0436 18.5878C24.7565 16.1028 22.3725 13.5168 17.7984 12.5227L16.8043 12.3247L16.2064 13.1207C14.8164 15.2097 13.9193 17.1978 13.6203 19.1858C13.3214 20.8749 13.6203 22.3659 13.7213 23.5579C13.8223 23.954 13.8222 24.253 13.8222 24.6529C12.4322 25.348 11.3372 26.443 10.5412 27.833C9.93934 29.4211 9.54329 31.0131 9.24429 32.4032C8.94531 33.8942 8.64633 35.1873 7.95127 35.9833C7.3533 36.6783 6.46024 36.7793 2.78316 37.1753L1.39312 37.3733L1.19509 38.4683C0.997061 39.4624 0.799033 40.3554 0.597127 41.0544C0.100117 43.3414 -0.295941 44.6344 0.298146 48.1135L0.399098 49.0066L1.19509 49.3056C4.47615 50.5986 7.75721 52.1866 10.5373 53.7787C13.4184 55.4677 15.4064 57.1567 16.3034 58.4498C16.5014 59.2457 16.5014 62.4258 16.4044 65.0119L16.3034 66.5029L27.4354 66.6039L27.5364 65.3108C27.5364 65.3108 27.6373 64.0178 27.8354 62.5268C29.9244 63.4199 32.2075 64.0178 34.5955 64.4138C38.8706 65.0118 43.3437 64.5148 47.2186 63.0238L47.6146 66.6039L59.3451 66.9999L59.0461 65.2099C58.351 61.4318 59.0461 60.2398 61.0341 57.1567C61.1351 56.9587 61.3331 56.7607 61.4302 56.4617C61.8262 55.8637 62.3233 55.1687 62.7232 54.4737C64.9093 51.3906 67.2973 47.8145 67.8913 42.1498C67.9923 40.8568 68.0893 39.5637 67.9923 38.3717C68.3883 38.3717 68.8853 38.2708 69.1843 38.2708H69.4833C70.5783 38.1698 71.5723 38.0727 72.5663 38.2708C73.0633 38.3717 74.1584 38.6668 74.6554 39.5638C75.0514 40.1618 74.9543 41.1558 74.5544 41.5518C74.0574 42.0488 72.9624 41.6528 72.4654 41.5518L71.4714 44.3359C72.3644 44.6349 73.0634 44.7319 73.7584 44.7319C75.0514 44.7319 75.9445 44.2349 76.5425 43.7379C77.2375 43.0429 77.7345 42.0489 77.8355 40.9539C78.2276 39.8589 77.9324 38.8643 77.4354 37.9713ZM65.1075 41.7455C64.6105 46.6146 62.5215 49.6976 60.4364 52.5783C59.9394 53.2733 59.5434 53.9683 59.0464 54.5663C58.9454 54.7644 58.7474 54.9624 58.6503 55.2614C57.5553 56.8534 56.7633 58.1424 56.2663 59.7345C55.9634 60.9304 55.8625 62.2234 55.9634 63.7144L50.3953 63.5164L49.7973 58.4453L47.9103 59.3384C44.1322 61.2254 39.5621 61.8234 35.0894 61.3264C32.4064 60.9304 29.7233 60.1344 27.4363 58.8414L25.4482 57.7463L25.2502 59.9324C25.1492 61.1244 24.9512 62.5184 24.8541 63.5125L19.488 63.4115V61.5245C19.488 57.9444 19.189 57.2494 18.8901 56.7524C16.7001 53.2772 9.54398 49.3011 3.08314 46.7147C2.78416 44.5287 3.08314 43.5347 3.4792 41.6437C3.58015 41.1466 3.67723 40.6496 3.87526 40.0516C5.46728 39.8536 6.55832 39.7527 7.45532 39.5546C8.64735 39.2556 9.54435 38.7586 10.2394 37.9626C11.4314 36.6696 11.8314 34.7825 12.2274 32.9925C12.8254 30.3094 13.3224 28.0224 16.1025 27.0284L17.0965 26.7294V25.7354C17.0965 24.8423 16.9956 24.0463 16.8985 23.2503C16.5995 21.1613 16.3005 19.0762 18.2885 15.7952C21.2706 16.6882 23.0606 18.5792 24.9477 20.6643C25.5456 21.2622 26.1397 21.8563 26.7377 22.5513L27.2347 23.0483L27.9298 22.9474C33.3969 22.4504 39.2596 22.0543 44.9295 22.6484C49.2046 23.1454 55.3667 24.6364 59.9412 28.6125C63.5213 31.7072 65.8043 35.0853 65.1093 41.7445L65.1075 41.7455Z" fill="#01556A"/>
</svg>
