<svg width="43" height="50" viewBox="0 0 43 50" fill="none" xmlns="http://www.w3.org/2000/svg">
<path fill-rule="evenodd" clip-rule="evenodd" d="M42.4275 6.78793C42.4275 6.34138 42.0828 5.96897 41.6345 5.92931C37.9966 5.60517 35.238 3.93621 33.669 0.503448C33.5311 0.196552 33.2207 0 32.8931 0H9.53106C9.18623 0 8.87585 0.205172 8.73792 0.52069C7.34137 3.77069 4.58274 5.45 0.755152 5.93276C0.324118 5.98621 0 6.35345 0 6.78793V26.0103C0 33.8103 4.27244 40.981 11.1518 44.6862C16.0483 47.3345 20.8069 49.8966 20.8069 49.8966C21.0655 50.0345 21.3587 50.0345 21.6173 49.8966C21.6173 49.8966 26.3759 47.3345 31.2724 44.6862C38.1517 40.981 42.4275 33.8103 42.4275 26.0103C42.4275 17.1862 42.4275 6.78793 42.4275 6.78793ZM40.7034 7.5569V26.0103C40.7034 33.1759 36.7724 39.7655 30.462 43.169L21.2207 48.1586L11.962 43.169C5.6517 39.7655 1.72414 33.1759 1.72414 26.0103V7.53103C5.63448 6.87069 8.47935 5.0069 10.0828 1.72414H32.3414C34.1172 5.19655 36.962 7.03448 40.7034 7.5569ZM11.9104 22.5586L19.2207 29.869C19.5655 30.2052 20.0999 30.2052 20.4448 29.869L34.4276 15.8793C34.7724 15.5414 34.7724 14.9966 34.4276 14.6586C34.1 14.3224 33.5483 14.3224 33.2207 14.6586L19.8414 28.0397L13.1344 21.3397C12.7896 21.0034 12.2552 21.0034 11.9104 21.3397C11.5828 21.6759 11.5828 22.2224 11.9104 22.5586Z" fill="#01556A"/>
</svg>
