<svg width="101" height="101" viewBox="0 0 101 101" fill="none" xmlns="http://www.w3.org/2000/svg">
<path d="M32.0836 28.4984C31.838 28.4984 31.6864 28.4939 31.6342 28.4917C30.8033 28.4578 30.1632 27.8491 30.2024 27.1343C30.2416 26.4196 30.9392 25.8672 31.7726 25.8988C31.9033 25.9033 45.1525 26.2595 55.9091 15.3175C56.3507 14.8688 57.0849 14.7335 57.6989 14.9838C58.3155 15.2341 58.6577 15.8113 58.5376 16.3907C58.5323 16.42 57.8922 19.784 60.3351 22.4378C62.245 24.5099 65.5501 25.6755 70.159 25.901C70.9899 25.9416 71.6221 26.5549 71.5751 27.2719C71.5281 27.9889 70.8227 28.5345 69.9866 28.4939C64.4606 28.2233 60.4109 26.7195 57.9471 24.0206C56.5466 22.4852 55.9013 20.8167 55.627 19.394C45.5104 28.0069 34.4664 28.4984 32.0836 28.4984Z" fill="#01556A"/>
<path d="M26.6493 76.3385C25.8159 76.3385 25.1392 75.7546 25.1392 75.0353V61.5793C25.1392 60.8601 25.8159 60.2761 26.6493 60.2761C27.4828 60.2761 28.1595 60.8601 28.1595 61.5793V75.0353C28.1621 75.7546 27.4854 76.3385 26.6493 76.3385Z" fill="#3F97FF"/>
<path d="M26.6492 86.1012C22.6961 86.1012 19.4824 83.3256 19.4824 79.9165C19.4824 76.5075 22.6987 73.7319 26.6492 73.7319C30.6022 73.7319 33.8159 76.5052 33.8159 79.9165C33.8159 83.3279 30.6022 86.1012 26.6492 86.1012ZM26.6492 76.3384C24.363 76.3384 22.5027 77.9437 22.5027 79.9165C22.5027 81.8894 24.363 83.4947 26.6492 83.4947C28.9353 83.4947 30.7956 81.8894 30.7956 79.9165C30.7956 77.9437 28.9353 76.3384 26.6492 76.3384Z" fill="#3F97FF"/>
<path d="M80.7851 86.1012H77.9581C77.1246 86.1012 76.4479 85.5173 76.4479 84.798C76.4479 84.0788 77.1246 83.4948 77.9581 83.4948H79.2749V79.9166C79.2749 77.2719 76.7797 75.1186 73.715 75.1186C70.6503 75.1186 68.1551 77.2719 68.1551 79.9166V83.4948H69.4719C70.3054 83.4948 70.9821 84.0788 70.9821 84.798C70.9821 85.5173 70.3054 86.1012 69.4719 86.1012H66.6449C65.8115 86.1012 65.1348 85.5173 65.1348 84.798V79.9166C65.1348 75.8334 68.9833 72.5122 73.715 72.5122C78.4467 72.5122 82.2952 75.8334 82.2952 79.9166V84.798C82.2979 85.5173 81.6212 86.1012 80.7851 86.1012Z" fill="#3F97FF"/>
<path d="M73.7152 75.1186C72.8818 75.1186 72.2051 74.5346 72.2051 73.8154V61.2026C72.2051 60.4834 72.8818 59.8994 73.7152 59.8994C74.5487 59.8994 75.2254 60.4834 75.2254 61.2026V73.8154C75.228 74.5346 74.5513 75.1186 73.7152 75.1186Z" fill="#3F97FF"/>
<path d="M78.6529 63.8903C77.8221 63.8903 77.148 63.3086 77.148 62.5916V26.237C77.148 13.7415 65.3698 3.57738 50.89 3.57738C43.9061 3.57738 37.322 5.94255 32.3474 10.2355C27.3727 14.5284 24.6319 20.2125 24.6319 26.237V62.5916C24.6319 63.3086 23.9579 63.8903 23.127 63.8903C22.2962 63.8903 21.6221 63.3086 21.6221 62.5916V26.237C21.6221 12.3098 34.7511 0.97998 50.89 0.97998C67.0289 0.97998 80.1579 12.3098 80.1579 26.237V62.5916C80.1579 63.3109 79.4838 63.8903 78.6529 63.8903Z" fill="#01556A"/>
<path d="M96.9893 100.98H4.79096C2.64067 100.98 0.890137 99.467 0.890137 97.6092V78.3699C0.890137 72.1109 5.4572 66.4426 12.2529 64.2668C12.2738 64.2601 12.2921 64.2556 12.313 64.2488L37.8473 57.1172V50.7657C37.8473 50.0487 38.5214 49.467 39.3523 49.467C40.1831 49.467 40.8572 50.0487 40.8572 50.7657V58.0326C40.8598 58.1273 40.8494 58.2197 40.8285 58.3122C40.7867 58.4971 40.7004 58.6684 40.5776 58.815C40.447 58.9728 40.2746 59.1081 40.0682 59.205C39.9767 59.2479 39.8827 59.2817 39.7808 59.3088L13.2693 66.7087C7.66236 68.5169 3.8974 73.1976 3.8974 78.3677V97.6069C3.8974 98.0331 4.29715 98.3803 4.78834 98.3803H96.9893C97.4805 98.3803 97.8802 98.0331 97.8802 97.6069V78.3677C97.8802 73.1976 94.1153 68.5147 88.5083 66.7087L61.9969 59.3065C61.895 59.2795 61.7957 59.2456 61.7043 59.2005C61.5057 59.1058 61.3385 58.9773 61.2105 58.824C61.0824 58.6729 60.9936 58.4971 60.9492 58.3054C60.9283 58.2152 60.9204 58.125 60.9231 58.0326V50.8153C60.9231 50.0984 61.5971 49.5166 62.428 49.5166C63.2588 49.5166 63.9329 50.0984 63.9329 50.8153V57.1172L89.4672 64.2465C89.4881 64.2533 89.5064 64.2578 89.5273 64.2646C96.3231 66.4403 100.89 72.1086 100.89 78.3677V97.6069C100.893 99.467 99.1422 100.98 96.9893 100.98Z" fill="#01556A"/>
<path d="M50.8874 55.3924C39.6003 55.3924 30.3199 47.4694 30.1997 37.7314V27.193C30.1997 26.476 30.8738 25.8943 31.7046 25.8943C32.5355 25.8943 33.2096 26.476 33.2096 27.193V37.7179C33.3115 46.0264 41.2411 52.795 50.8874 52.795C60.5336 52.795 68.4659 46.0242 68.5704 37.7044V27.1952C68.5704 26.4783 69.2445 25.8965 70.0753 25.8965C70.9062 25.8965 71.5803 26.4783 71.5803 27.1952V37.7201C71.5202 42.4617 69.3412 46.899 65.4456 50.2269C61.5447 53.5571 56.3741 55.3924 50.8874 55.3924Z" fill="#01556A"/>
<path d="M50.8902 70.8551C50.4539 70.8551 50.0385 70.6905 49.7537 70.4064L38.2132 58.912C37.6698 58.3709 37.7377 57.5502 38.3648 57.0789C38.9918 56.61 39.9428 56.6686 40.4889 57.2097L50.8928 67.5723L61.2968 57.212C61.8402 56.6708 62.7913 56.6122 63.4209 57.0812C64.0506 57.5502 64.1159 58.3709 63.5725 58.9142L52.032 70.4064C51.742 70.6905 51.3266 70.8551 50.8902 70.8551Z" fill="#01556A"/>
<path d="M50.8902 100.98C50.0593 100.98 49.3853 100.398 49.3853 99.6814V69.5565C49.3853 68.8395 50.0593 68.2578 50.8902 68.2578C51.721 68.2578 52.3951 68.8395 52.3951 69.5565V99.6814C52.3951 100.398 51.721 100.98 50.8902 100.98Z" fill="#01556A"/>
</svg>
