<svg width="100" height="51" viewBox="0 0 100 51" fill="none" xmlns="http://www.w3.org/2000/svg">
<path d="M99.933 16.8482C99.746 15.8521 99.158 15.0722 98.408 14.8255L98.34 14.7366H94.765V5.01409C94.765 2.33344 93.121 0.152833 91.1 0.152833H3.665C1.645 0.151506 0 2.33211 0 5.01277V45.2916C0 47.9722 1.645 50.1528 3.665 50.1528H91.1C93.121 50.1528 94.765 47.9722 94.765 45.2916V35.5691H98.34L98.408 35.4802C99.158 35.2335 99.747 34.4536 99.933 33.4561L100 33.3659V16.9384L99.933 16.8482ZM92.67 45.2916C92.67 46.4402 91.966 47.3753 91.1 47.3753H3.665C2.799 47.3753 2.094 46.4402 2.094 45.2916V5.01277C2.094 3.8641 2.799 2.92899 3.665 2.92899H91.1C91.966 2.92899 92.67 3.8641 92.67 5.01277V14.7353V35.5691V45.2916Z" fill="#01556A"/>
<path d="M36.7528 5.70654H21.9878V44.5953H36.7528V5.70654Z" fill="#01556A"/>
<path d="M54.765 5.70508H39.999V44.5938H54.765V5.70508Z" fill="#01556A"/>
<path d="M72.6732 5.70654H57.9072V44.5953H72.6732V5.70654Z" fill="#3F97FF"/>
<path d="M3.92676 7.79032V42.5128C3.92676 43.6655 4.62876 44.5953 5.49776 44.5953H18.6918V5.70654H5.49776C4.62876 5.70654 3.92676 6.64033 3.92676 7.79032Z" fill="#01556A"/>
</svg>
