<svg width="100" height="100" viewBox="0 0 100 100" fill="none" xmlns="http://www.w3.org/2000/svg">
<path d="M50.4121 72.1262L60.4221 63.2662L50.4121 53.5562V72.1262Z" fill="#01556A"/>
<path d="M50.4121 46.444L60.4221 36.734L50.4121 27.876V46.444Z" fill="#01556A"/>
<path d="M50 0C22.386 0 0 22.386 0 50C0 77.614 22.386 100 50 100C77.614 100 100 77.614 100 50C100 22.386 77.614 0 50 0ZM64.144 36.79L63.528 37.388L62.41 38.498L62.396 38.486L50.528 50L62.4 61.516L62.414 61.502L63.532 62.614L64.148 63.21L64.142 63.218L64.282 63.358L49.618 76.336L47.786 74.516H47.78V74.512L47.748 74.482L47.78 74.454V52.666L37.554 62.586L35.722 60.696L46.746 50L35.72 39.304L37.552 37.414L47.778 47.334V25.546L47.746 25.518L47.778 25.488V25.484H47.782L49.614 23.664L64.278 36.644L64.138 36.784L64.144 36.79Z" fill="#01556A"/>
</svg>
