<svg width="100" height="120" viewBox="0 0 100 120" fill="none" xmlns="http://www.w3.org/2000/svg">
<path fill-rule="evenodd" clip-rule="evenodd" d="M34.7962 32.6375C34.6133 32.6694 34.4432 32.7496 34.3051 32.8691C34.167 32.9886 34.0663 33.1426 34.0144 33.314C33.9625 33.4854 33.9613 33.6673 34.0111 33.8392C34.0609 34.0112 34.1596 34.1664 34.2962 34.2875L48.5774 47.9975L34.2962 61.7075C34.2018 61.7962 34.1264 61.9017 34.0745 62.0183C34.0226 62.1349 33.9952 62.2601 33.9937 62.3869C33.9922 62.5137 34.0168 62.6395 34.066 62.7572C34.1151 62.8748 34.188 62.9821 34.2804 63.0727C34.3727 63.1633 34.4828 63.2356 34.6042 63.2854C34.7257 63.3352 34.8561 63.3615 34.9882 63.3629C35.1203 63.3643 35.2513 63.3407 35.3739 63.2934C35.4964 63.2462 35.6081 63.1762 35.7024 63.0875L50.0149 49.3775L64.2962 63.0875C64.3906 63.1762 64.5022 63.2462 64.6248 63.2934C64.7473 63.3407 64.8784 63.3643 65.0104 63.3629C65.1425 63.3615 65.273 63.3352 65.3944 63.2854C65.5159 63.2356 65.6259 63.1633 65.7183 63.0727C65.8106 62.9821 65.8835 62.8748 65.9326 62.7572C65.9818 62.6395 66.0064 62.5137 66.0049 62.3869C66.0035 62.2601 65.976 62.1349 65.9241 62.0183C65.8722 61.9017 65.7969 61.7962 65.7024 61.7075L51.4212 47.9975L65.7024 34.2875C65.8471 34.1532 65.9462 33.9802 65.9868 33.7909C66.0273 33.6017 66.0075 33.4052 65.9299 33.2269C65.8522 33.0487 65.7204 32.8971 65.5516 32.792C65.3828 32.6868 65.1849 32.633 64.9837 32.6375C64.7269 32.6395 64.4807 32.7361 64.2962 32.9075L50.0149 46.6175L35.7024 32.9075C35.6072 32.8191 35.4947 32.7496 35.3713 32.7033C35.2479 32.6569 35.1161 32.6346 34.9837 32.6375C34.9213 32.6319 34.8585 32.6319 34.7962 32.6375Z" fill="black"/>
</svg>
