<?xml version="1.0" encoding="utf-8"?>
<!-- Generator: Adobe Illustrator 19.0.0, SVG Export Plug-In . SVG Version: 6.00 Build 0)  -->
<svg version="1.1" id="Layer_1" xmlns="http://www.w3.org/2000/svg" xmlns:xlink="http://www.w3.org/1999/xlink" x="0px" y="0px"
	 viewBox="-375.9 -135 1658.4 1012.8" style="enable-background:new -375.9 -135 1658.4 1012.8;" xml:space="preserve">
<style type="text/css">
	.st0{fill:#01556A;}
	.st1{fill:none;stroke:#FFA73F;stroke-width:14;stroke-linecap:round;stroke-miterlimit:10;}
</style>
<title>Interior &amp;amp; Homedecor Vol.1</title>
<g>
	<g>
		<path class="st0" d="M271.6,480c-0.2,0-19.1-0.3-19.1-24.8c0-7.5,1.8-12.9,4.3-16.9h-99.9c-1.3,0.2-10,1.8-10,16.9
			c0,15.8,9.8,16,10.2,16c2.4,0,4.4,2,4.4,4.4c0,2.4-2,4.4-4.4,4.4c-0.2,0-19.1-0.3-19.1-24.8c0-19.4,12-25.3,18.3-25.7h114.7
			c2.4-0.1,4.5,1.8,4.6,4.3c0.1,2.4-1.8,4.5-4.3,4.6l0,0c-1,0.1-10,1.4-10,16.9c0,15.8,9.8,16,10.2,16c2.4,0,4.4,2,4.4,4.4
			C276,478,274,480,271.6,480z"/>
		<path class="st0" d="M317.2,507.9h-426.1c-2.4,0-4.4-2-4.4-4.4V361.6c0-2.4,2-4.4,4.4-4.4h426.1c2.4,0,4.4,2,4.4,4.4v141.9
			C321.7,505.9,319.7,507.9,317.2,507.9z M-104.5,499h417.3V366h-417.3V499z"/>
		<path class="st0" d="M288.8,480H-80.1c-2.4,0-4.4-2-4.4-4.4v-85.1c0-2.4,2-4.4,4.4-4.4h368.9c2.4,0,4.4,2,4.4,4.4v85.1
			C293.3,478,291.3,480,288.8,480z M-75.7,471.1h360.1v-76.3H-75.7V471.1z"/>
		<path class="st0" d="M89.3,480c-2.4,0-4.4-2-4.4-4.4v-85.1c0-2.4,2-4.4,4.4-4.4c2.4,0,4.4,2,4.4,4.4v85.1
			C93.7,478,91.8,480,89.3,480z"/>
		<path class="st0" d="M118.6,480c-2.4,0-4.4-2-4.4-4.4v-85.1c0-2.4,2-4.4,4.4-4.4s4.4,2,4.4,4.4v85.1C123,478,121,480,118.6,480z"
			/>
		<path class="st0" d="M-61.5,606.8h-19.1c-2.4,0-4.4-2-4.4-4.4v-98c0-2.4,2-4.4,4.4-4.4c2.4,0,4.4,2,4.4,4.4v93.6H-65l22.3-94.6
			c0.6-2.4,3-3.9,5.3-3.3c2.4,0.6,3.9,3,3.3,5.3l0,0l-23.1,98C-57.6,605.4-59.4,606.8-61.5,606.8z"/>
		<path class="st0" d="M288,606.8h-19.1c-2.1,0-3.8-1.4-4.3-3.4l-23.1-98c-0.6-2.4,0.9-4.8,3.3-5.3s4.8,0.9,5.3,3.3l22.3,94.6h11.1
			v-93.6c0-2.4,2-4.4,4.4-4.4c2.4,0,4.4,2,4.4,4.4v98C292.4,604.8,290.4,606.8,288,606.8z"/>
		<path class="st0" d="M255.1,550H-48.2c-2.4,0-4.4-2-4.4-4.4c0-2.4,2-4.4,4.4-4.4h303.3c2.4,0,4.4,2,4.4,4.4
			C259.6,548,257.6,550,255.1,550z"/>
		<path class="st0" d="M145.8,366c-0.5,0-1-0.1-1.5-0.3c-4-1.4-16.9-8-16.9-33c0-2.4,2-4.4,4.4-4.4H274c2.4,0,4.4,2,4.4,4.4
			c0,12.9-2.7,22.3-8,27.9c-4.6,4.8-9.4,4.9-10,4.9v-8.9h-0.2c2.9-0.2,8.2-4.7,9.1-19.5H136.5c1.3,15.9,9.1,19.6,10.8,20.2
			c2.3,0.8,3.5,3.4,2.7,5.7C149.3,364.8,147.7,366,145.8,366L145.8,366z"/>
		<path class="st0" d="M160.7,337.2c-2.4,0-4.4-2-4.4-4.4v-55.9c0-2.4,2-4.4,4.4-4.4h85.6c2.4,0,4.4,2,4.4,4.4v55
			c0,2.4-2,4.4-4.4,4.4s-4.4-2-4.4-4.4v-50.6h-76.7v51.4C165.1,335.2,163.1,337.2,160.7,337.2z"/>
		<path class="st0" d="M249.1,325.2c-1.9,0-3.2-0.1-3.3-0.1c-2.4-0.1-4.3-2.2-4.2-4.7c0.1-2.4,2.2-4.3,4.7-4.2c0.1,0,0.2,0,0.3,0
			c3.2,0.3,12.6,0.1,17.2-4c1.9-1.8,2.9-4.3,2.8-6.9c0-3.7-1.1-6.4-3.3-8.4c-4.7-4.2-13.6-4.3-16.6-4c-2.4,0.1-4.5-1.7-4.7-4.2
			c-0.1-2.3,1.5-4.3,3.8-4.6c0.6-0.1,14.9-1.5,23.5,6.2c4.1,3.7,6.2,8.8,6.2,15.1c0.1,5.1-1.9,10-5.7,13.5
			c-3.6,3.3-8.9,5.4-15.4,6.1C252.7,325.1,250.9,325.2,249.1,325.2z"/>
		<path class="st0" d="M58.3,365.8c-0.2,0-0.4,0-0.6,0c-2.4-0.3-4.1-2.6-3.8-5l13-93.7H-61.1l13.4,92c0.4,2.4-1.3,4.7-3.8,5
			c-2.4,0.4-4.7-1.3-5-3.8l-14.1-97.1c-0.4-2.4,1.3-4.7,3.7-5c0.2,0,0.4,0,0.6,0H71.9c2.4,0,4.5,1.9,4.5,4.4c0,0.2,0,0.4,0,0.7
			L62.6,362C62.3,364.2,60.5,365.8,58.3,365.8z"/>
		<path class="st0" d="M4.6,267.1H4.1c-2.4-0.3-4.2-2.4-4-4.8c1.3-8.4,5.7-15.9,12.4-21.2c10.3-8.3,25.2-11.5,44.4-9.4
			c33.7,3.7,45.2-3.7,49.1-8.4c2.7-3.2,3.4-7.6,2-11.6c-1.3-4.2-6.8-7.9-14.3-9.6c-9.1-2.1-21.3-1.1-27.9,6
			c-1.7,1.8-4.5,1.9-6.3,0.2s-1.9-4.5-0.2-6.3l0,0c6-6.4,19.1-12.5,36.4-8.6c10.7,2.5,18.5,8.3,20.8,15.6s1,14.3-3.6,19.9
			c-6.1,7.4-21,15.5-57,11.6C12.6,235.8,9.1,262,9,263.2C8.8,265.4,6.9,267.1,4.6,267.1z"/>
		<path class="st0" d="M-0.3,267.1c-1.4,0-2.7-0.7-3.5-1.8c-5.8-7.6-12-29.7-3.7-47c4.6-9.5,15.2-20.9,39.9-21.3
			c52.9-0.9,68.2,33.6,68.9,35.1c0.9,2.3-0.1,4.9-2.4,5.8c-2.2,0.9-4.8-0.1-5.7-2.3c-0.6-1.3-13.9-30.5-60.6-29.7
			c-16.2,0.3-27,5.8-32.1,16.3c-6.5,13.6-1.6,32.1,2.9,37.8c1.5,2,1.1,4.7-0.9,6.2C1.6,266.8,0.7,267.1-0.3,267.1z"/>
		<path class="st0" d="M-25.4,218.8c-2.1,0-3.9-1.5-4.3-3.5c-0.2-0.8-3.5-18.6,6.6-31.5c6-7.6,15.2-11.8,27.3-12.4
			c14.1-0.7,25,2.6,32.3,9.6c5.6,5.4,8.8,12.8,9.1,20.5c0,2.4-2,4.4-4.4,4.4l0,0c-2.4,0-4.4-2-4.4-4.4c-0.3-5.4-2.6-10.4-6.5-14.2
			c-5.5-5.2-14.2-7.6-25.7-7.1c-9.5,0.5-16.5,3.5-20.8,9c-7.6,9.8-4.9,24.2-4.9,24.3c0.5,2.4-1.1,4.7-3.5,5.2
			C-24.9,218.8-25.2,218.8-25.4,218.8z"/>
		<path class="st0" d="M-18.3,267.1c-0.3,0-0.5,0-0.8-0.1c-0.8-0.2-1.6-0.5-2.2-1.1c-0.2,0.2-0.4,0.3-0.6,0.4
			c-2.2,1.1-4.9,0.2-5.9-2c0,0,0,0,0,0c-2.8-5.5-6.8-10.3-11.7-14.1c-4.5-3.6-9.8-6.3-15.4-7.7c-6.1-1.5-12-0.9-18.3-0.2
			c-1.6,0.2-3.2,0.3-4.9,0.5c-5.8,0.5-14.3,0.6-21.4-3.9c-9.1-6.1-12.6-17.8-8.4-27.9c7.1-16,29.1-18.7,35.6-19.1
			c15.1-1,30.2,3.1,41.7,11.4c10.2,7.3,16.2,20.2,17.5,37.2c0.6,7.7,0.2,15.4-1,23.1C-14.3,265.6-16.2,267.1-18.3,267.1z
			 M-63.2,232.8c3.5,0,7,0.4,10.4,1.2c6.9,1.7,13.3,4.9,18.8,9.4c4.7,3.8,8.8,8.3,12,13.4c1-10.7,1.5-35.4-13.7-46.3
			c-9.8-7.1-22.9-10.6-35.9-9.7c-21.1,1.4-26.9,11-28.1,13.9c-2.5,5.7-0.2,13.5,5.1,16.9c3.7,2.4,8.5,3.1,15.8,2.5
			c1.6-0.1,3.2-0.3,4.7-0.5C-70.5,233.1-66.8,232.9-63.2,232.8z"/>
		<path class="st0" d="M56,266.9c-1.7,0-3.2-0.9-4-2.4c-9.4-18.9-39.8-11.2-40.1-11.1c-2.3,0.7-4.8-0.7-5.5-3
			c-0.7-2.3,0.7-4.8,3-5.5c0.1,0,0.2,0,0.3-0.1c6.5-1.5,13.2-2.1,19.8-1.8c14.7,0.8,25.2,6.9,30.5,17.6c1.1,2.2,0.2,4.9-2,5.9
			C57.4,266.8,56.7,267,56,266.9L56,266.9z"/>
		<path class="st0" d="M68.9,479.1H-59.7c-2.4,0-4.4-2-4.4-4.4v-28.4c0-2.4,2-4.4,4.4-4.4H68.9c2.4,0,4.4,2,4.4,4.4v28.4
			C73.3,477.1,71.4,479.1,68.9,479.1z M-55.3,470.2H64.5v-19.5H-55.3V470.2z"/>
		<path class="st0" d="M256,452.5H144.3c-2.4,0-4.4-2-4.4-4.4c0-2.4,2-4.4,4.4-4.4H256c2.4,0,4.4,2,4.4,4.4
			C260.5,450.5,258.5,452.5,256,452.5z"/>
		<path class="st0" d="M256,466.7H144.3c-2.4,0-4.4-2-4.4-4.4c0-2.4,2-4.4,4.4-4.4H256c2.4,0,4.4,2,4.4,4.4
			C260.5,464.7,258.5,466.7,256,466.7z"/>
		<path class="st0" d="M-3.8,464.9h-40.8c-2.4,0-4.4-2-4.4-4.4c0-2.4,2-4.4,4.4-4.4h40.8c2.4,0,4.4,2,4.4,4.4
			C0.6,462.9-1.4,464.9-3.8,464.9z"/>
		<path class="st0" d="M223,252.9c-2.4,0-4.4-2-4.4-4.4c0-1.3,0.6-2.6,1.6-3.4l0,0c0,0,4.2-4.7-1-12.1c-5.1-6.8-4.9-16.2,0.5-22.8
			c1.6-1.8,4.4-2,6.3-0.4c1.8,1.6,2,4.3,0.5,6.1c-0.5,0.6-4.4,5.6,0.1,11.9c4.4,6.3,4.6,11.9,4,15.4c-0.5,3.3-2.1,6.4-4.6,8.7
			C225,252.6,224.1,252.9,223,252.9z"/>
		<path class="st0" d="M185.6,252.9c-2.4,0-4.4-2-4.4-4.4c0-1.3,0.6-2.6,1.6-3.4l0,0c0,0,4.2-4.7-1-12.1c-5.1-6.8-4.9-16.2,0.5-22.8
			c1.6-1.8,4.4-2,6.3-0.4c1.8,1.6,2,4.3,0.5,6.1c-0.5,0.6-4.4,5.6,0.1,11.9c4.4,6.3,4.6,11.9,4,15.4c-0.5,3.3-2.1,6.4-4.6,8.7
			C187.6,252.6,186.6,252.9,185.6,252.9z"/>
		<path class="st0" d="M40.5,348.7c-0.2,0-0.4,0-0.6,0c-2.4-0.3-4.1-2.6-3.8-5l8-56.8c0.4-2.4,2.7-4.1,5.1-3.7
			c2.4,0.4,4,2.6,3.7,4.9l-8,56.8C44.6,347.1,42.7,348.7,40.5,348.7z"/>
	</g>
	<g>
		<path class="st0" d="M970.9,218.1c-4.3,0-8.5,0.8-12.8,1.9v-87c0-39.6-32.2-71.8-71.9-71.8H510.6c-39.6,0-71.9,32.2-71.9,71.8v87
			c-4.3-1.1-8.6-1.9-13.1-1.9c-26.9,0-48.8,21.1-48.8,47V525c0,23.8,19.3,43.1,43.1,43.1h8.6v20.3c0,12.6,21.7,18.4,41.9,18.4
			c20.2,0,41.9-5.7,41.9-18.4v-20.3h373.6v20.3c0,12.6,21.7,18.4,41.9,18.4c20.2,0,41.9-5.7,41.9-18.4v-20.3h7.4
			c23.8,0,43.1-19.3,43.1-43.1V265.1C1020,239.2,998.1,218.1,970.9,218.1z M449.6,133.1c0-33.6,27.4-60.9,61-60.9h375.6
			c33.6,0,61,27.3,61,60.9v91.1c-0.5,0.3-1,0.7-1.5,1c-0.9,0.5-1.8,1.1-2.6,1.7c-1,0.7-1.9,1.4-2.9,2.1c-0.8,0.6-1.6,1.3-2.3,2
			c-0.9,0.8-1.7,1.6-2.5,2.5c-0.7,0.7-1.4,1.4-2,2.2c-0.8,0.9-1.5,1.9-2.2,2.8c-0.6,0.8-1.1,1.6-1.7,2.4c-0.7,1-1.2,2.1-1.8,3.2
			c-0.4,0.8-0.9,1.6-1.3,2.5c-0.5,1.2-1,2.4-1.4,3.6c-0.3,0.8-0.6,1.6-0.9,2.4c-0.4,1.4-0.7,2.8-1,4.2c-0.1,0.7-0.3,1.4-0.5,2.1
			c-0.3,2.1-0.5,4.3-0.5,6.5v86c-0.2-0.2-0.5-0.3-0.7-0.5c-1.8-1.4-3.8-2.9-6-4.2c-0.1,0-0.2-0.1-0.2-0.1c-2.2-1.3-4.6-2.6-7.2-3.9
			c-0.5-0.3-1-0.5-1.5-0.8c-2.6-1.2-5.3-2.4-8.2-3.6c-0.6-0.2-1.2-0.5-1.8-0.7c-3.1-1.2-6.2-2.3-9.6-3.4c-0.1,0-0.2-0.1-0.3-0.1
			c-3.3-1.1-6.8-2.1-10.4-3.1c-0.7-0.2-1.4-0.4-2.1-0.6c-3.6-1-7.3-1.9-11.2-2.8c-0.8-0.2-1.6-0.4-2.3-0.5c-4-0.9-8.2-1.8-12.4-2.7
			c0,0-0.1,0-0.2,0c-4.3-0.8-8.6-1.6-13.1-2.4c-0.8-0.1-1.7-0.3-2.5-0.4c-4.3-0.7-8.8-1.4-13.3-2c-0.9-0.1-1.8-0.3-2.7-0.4
			c-4.7-0.7-9.5-1.3-14.4-1.8c0,0-0.1,0-0.1,0c-4.9-0.6-9.8-1.1-14.8-1.6c-1-0.1-1.9-0.2-2.9-0.3c-4.8-0.5-9.7-0.9-14.6-1.2
			c-1-0.1-2-0.1-3-0.2c-10.3-0.7-20.7-1.3-31.2-1.7c-1,0-2-0.1-3-0.1c-5.1-0.2-10.2-0.3-15.2-0.4c-1,0-1.9,0-2.9-0.1
			c-5.3-0.1-10.6-0.1-15.8-0.1c-5.2,0-10.5,0.1-15.7,0.1c-1,0-2.1,0-3.1,0.1c-5.1,0.1-10.1,0.2-15.2,0.4c-0.9,0-1.9,0.1-2.8,0.1
			c-4.9,0.2-9.9,0.4-14.8,0.7c-0.4,0-0.8,0-1.2,0.1c-5.1,0.3-10.2,0.6-15.3,1c-1,0.1-2,0.2-3,0.2c-5,0.4-9.9,0.8-14.8,1.3
			c-0.8,0.1-1.5,0.2-2.3,0.2c-4.6,0.4-9.2,0.9-13.8,1.4c-0.6,0.1-1.2,0.1-1.8,0.2c-4.8,0.6-9.5,1.2-14.1,1.8c-1,0.1-1.9,0.3-2.9,0.4
			c-4.6,0.7-9.1,1.4-13.6,2.1c-0.5,0.1-1,0.2-1.6,0.3c-4.2,0.7-8.2,1.4-12.2,2.2c-0.7,0.1-1.4,0.3-2.1,0.4
			c-4.1,0.8-8.2,1.7-12.1,2.6c-0.8,0.2-1.6,0.4-2.4,0.6c-3.9,0.9-7.8,1.9-11.5,2.9c-0.2,0.1-0.5,0.1-0.7,0.2c-3.5,1-6.9,2-10.2,3
			c-0.6,0.2-1.3,0.4-1.9,0.6c-3.3,1.1-6.4,2.2-9.4,3.4c-0.6,0.2-1.2,0.5-1.8,0.7c-3,1.2-5.8,2.4-8.4,3.7c-0.1,0-0.1,0.1-0.2,0.1
			c-2.6,1.3-5,2.6-7.3,4c-0.5,0.3-0.9,0.5-1.4,0.8c-2.1,1.3-4.1,2.7-5.9,4.1c-0.1,0.1-0.3,0.2-0.4,0.3v-85.9c0-2.2-0.2-4.3-0.5-6.5
			c-0.1-0.7-0.3-1.4-0.4-2.1c-0.3-1.4-0.6-2.8-1-4.2c-0.2-0.8-0.6-1.5-0.9-2.3c-0.4-1.3-0.9-2.5-1.4-3.7c-0.4-0.8-0.8-1.5-1.2-2.3
			c-0.6-1.2-1.2-2.3-1.9-3.4c-0.5-0.7-1-1.4-1.5-2.1c-0.8-1.1-1.6-2.1-2.4-3.2c-0.5-0.6-1.1-1.2-1.7-1.9c-0.9-1-1.9-1.9-2.9-2.9
			c-0.6-0.6-1.3-1.1-2-1.6c-1.1-0.9-2.2-1.7-3.3-2.5c-0.7-0.5-1.5-1-2.2-1.4c-0.6-0.3-1.1-0.7-1.7-1.1L449.6,133.1L449.6,133.1z
			 M922.2,371v46.5H474.7v-47.7c0-22.6,91.9-47.7,223.8-47.7c131.8,0,223.6,25.1,223.6,47.7C922.1,370.2,922.1,370.6,922.2,371z
			 M433.6,557.2h-13.7c-17.8,0-32.2-14.4-32.2-32.2V265.1c0-19.9,17-36.1,38.2-36.1c5.3,0,10.7,1.2,15.9,3.4
			c13.3,6.1,21.8,18.9,21.8,32.7v104.6v53.2v134.2H434C433.8,557.1,433.7,557.2,433.6,557.2z M470.4,595.9c-19.7,0-30.2-5.5-31-7.5
			v-20.3h29.8h32.1l0,20.1C500.5,590.4,490.1,595.9,470.4,595.9z M890.9,557.2H507.1c-0.1,0-0.2-0.1-0.3-0.1h-32.1V428.4h447.4
			v128.7h-30.8C891.2,557.1,891.1,557.2,890.9,557.2z M927.7,595.9c-19.7,0-30.2-5.5-31-7.5v-20.3h30.8c0,0,0,0,0.1,0
			c0,0,0.1,0,0.1,0h31l0,20.1C957.8,590.4,947.4,595.9,927.7,595.9z M1009.1,525c0,17.7-14.4,32.2-32.2,32.2h-12.5
			c-0.1,0-0.2-0.1-0.3-0.1h-31V422.9v-53.2V265.1c0-1.9,0.2-3.7,0.5-5.5c1.9-11.6,9.9-21.9,21.3-27.2c5.3-2.3,10.7-3.4,16.3-3.4
			c20.9,0,37.9,16.2,37.9,36.1L1009.1,525L1009.1,525z"/>
	</g>
</g>
<line class="st1" x1="-368.9" y1="-128" x2="-368.9" y2="870.8"/>
<line class="st1" x1="-313.9" y1="-3.4" x2="-313.9" y2="746.2"/>
<line class="st1" x1="-258.9" y1="191.7" x2="-258.9" y2="551.1"/>
<line class="st1" x1="1275.6" y1="870.8" x2="1275.6" y2="-128"/>
<line class="st1" x1="1220.6" y1="746.2" x2="1220.6" y2="-3.4"/>
<line class="st1" x1="1165.6" y1="551.1" x2="1165.6" y2="191.7"/>
</svg>
