<svg width="1280" height="300" viewBox="0 0 1280 300" fill="none" xmlns="http://www.w3.org/2000/svg">
<g id="congratulations-banner" clip-path="url(#clip0_157_39)">
<rect width="1280" height="300" fill="white"/>
<g id="noun-party-4613840 1">
<path id="Vector" d="M762.7 14.3211C762.114 13.309 760.097 12.7367 758.177 13.0478C613.617 36.5641 497.353 13.3301 496.194 13.092C494.34 12.7098 492.236 13.2015 491.512 14.1905C490.791 15.1796 491.715 16.2915 493.58 16.6737C493.884 16.7371 502.021 18.3618 516.404 20.3284L505.146 40.0939C504.758 40.7757 505.117 41.5189 506.073 42.0183C507.033 42.5195 508.427 42.6943 509.72 42.4773L530.223 38.9897L543.654 47.9141C544.35 48.375 545.396 48.6362 546.486 48.6362C546.703 48.6362 546.921 48.6266 547.138 48.6036C548.449 48.4768 549.524 47.9775 549.934 47.3034L563.372 25.1584C574.489 25.9631 586.711 26.6199 599.9 27.0097V53.7735C599.9 54.4879 600.646 55.1409 601.837 55.4731C603.028 55.8035 604.47 55.7574 605.578 55.3541L629.775 46.5045L653.976 55.3541C654.595 55.5788 655.312 55.694 656.033 55.694C656.608 55.694 657.184 55.621 657.717 55.4731C658.908 55.1409 659.654 54.4879 659.654 53.7735V26.7216C669.732 26.3279 680.114 25.748 690.771 24.9433L705.126 47.3361C705.553 48.0006 706.629 48.4903 707.932 48.6093C708.142 48.6286 708.349 48.6382 708.555 48.6382C709.645 48.6382 710.692 48.377 711.383 47.9161L724.818 38.9916L745.322 42.4792C746.604 42.6981 748.005 42.5214 748.968 42.0202C749.928 41.5209 750.283 40.7796 749.895 40.0959L738.423 19.9539C745.64 18.986 752.926 17.9201 760.296 16.7217C762.211 16.4087 763.287 15.3351 762.7 14.3211ZM547.214 27.4841L543.14 34.0675C542.64 34.876 541.221 35.3888 539.7 35.3888C539.327 35.3888 538.947 35.3561 538.57 35.2927C536.673 34.9624 535.633 33.8774 536.26 32.8691L540.334 26.2857C540.957 25.2794 543.003 24.7243 544.904 25.0604C546.801 25.3908 547.841 26.4758 547.214 27.4841ZM619.82 39.61C619.82 40.6701 618.198 41.5305 616.199 41.5305C614.2 41.5305 612.578 40.6701 612.578 39.61V30.7278C612.578 29.6677 614.2 28.8073 616.199 28.8073C618.198 28.8073 619.82 29.6677 619.82 30.7278V39.61ZM713.401 35.2735C712.995 35.3542 712.571 35.3907 712.162 35.3907C710.685 35.3907 709.294 34.9067 708.762 34.127L704.242 27.5436C703.558 26.5469 704.525 25.4445 706.408 25.0816C708.28 24.7128 710.366 25.2333 711.047 26.2281L715.566 32.8115C716.25 33.8082 715.28 34.9106 713.401 35.2735Z" fill="#02718C"/>
<path id="Vector_2" d="M500.529 71.5379C500.529 70.1513 498.411 69.0259 495.792 69.0259C493.174 69.0259 491.056 70.1494 491.056 71.5379C491.056 74.9313 488.383 76.533 485.001 78.5611C481.246 80.8138 476.571 83.6177 476.571 88.9124C476.571 94.2072 481.246 97.0111 485.001 99.2657C488.387 101.296 491.056 102.899 491.056 106.293C491.056 109.686 488.383 111.288 485.001 113.316C481.246 115.569 476.571 118.373 476.571 123.667C476.571 128.964 481.246 131.77 485.001 134.023C488.387 136.054 491.056 137.66 491.056 141.055C491.056 144.451 488.383 146.056 485.001 148.084C481.246 150.339 476.571 153.145 476.571 158.441C476.571 159.828 478.689 160.953 481.307 160.953C483.926 160.953 486.044 159.828 486.044 158.441C486.044 155.044 488.716 153.441 492.099 151.412C495.854 149.158 500.529 146.352 500.529 141.055C500.529 135.757 495.854 132.951 492.099 130.696C488.716 128.666 486.044 127.063 486.044 123.667C486.044 120.274 488.716 118.672 492.099 116.644C495.854 114.391 500.529 111.588 500.529 106.293C500.529 100.996 495.854 98.1922 492.099 95.9375C488.716 93.9076 486.044 92.3059 486.044 88.9124C486.044 85.5189 488.716 83.9173 492.099 81.8892C495.854 79.6365 500.529 76.8326 500.529 71.5379Z" fill="#FF3FD5"/>
<path id="Vector_3" d="M782.986 77.4856C782.986 72.1909 778.311 69.3851 774.556 67.1323C771.17 65.1024 768.501 63.4988 768.501 60.1053C768.501 56.7118 771.17 55.1101 774.556 53.0821C778.311 50.8294 782.986 48.0255 782.986 42.7307C782.986 41.3442 780.864 40.2188 778.249 40.2188C775.635 40.2188 773.513 41.3422 773.513 42.7307C773.513 46.1242 770.844 47.7259 767.458 49.7539C763.703 52.0066 759.028 54.8105 759.028 60.1053C759.028 65.4001 763.703 68.2059 767.458 70.4586C770.844 72.4886 773.513 74.0922 773.513 77.4856C773.513 80.8791 770.844 82.4808 767.458 84.5088C763.703 86.7616 759.028 89.5655 759.028 94.8602C759.028 100.157 763.703 102.963 767.458 105.215C770.84 107.247 773.513 108.853 773.513 112.248C773.513 115.644 770.84 117.249 767.458 119.277C763.703 121.532 759.028 124.338 759.028 129.634C759.028 131.021 761.15 132.146 763.764 132.146C766.379 132.146 768.501 131.021 768.501 129.634C768.501 126.237 771.173 124.633 774.556 122.605C778.311 120.351 782.986 117.545 782.986 112.248C782.986 106.95 778.311 104.144 774.556 101.889C771.17 99.8592 768.501 98.2556 768.501 94.8602C768.501 91.4667 771.17 89.865 774.556 87.837C778.311 85.5824 782.986 82.7804 782.986 77.4856Z" fill="#FFA73F"/>
<path id="Vector_4" d="M633.548 64.7374L630.455 60.3088C629.934 59.5559 628.576 59.0547 627.062 59.0547C625.549 59.0547 624.194 59.5559 623.665 60.3088L620.577 64.7374L612.226 66.3756C610.806 66.656 609.861 67.3742 609.861 68.177C609.861 68.9797 610.806 69.698 612.226 69.9784L620.577 71.6166L623.665 76.0452C624.194 76.798 625.549 77.2993 627.062 77.2993C628.576 77.2993 629.934 76.798 630.459 76.0452L633.551 71.6166L641.902 69.9784C643.325 69.698 644.267 68.9797 644.267 68.177C644.267 67.3742 643.322 66.656 641.902 66.3756L633.548 64.7374Z" fill="#00FF85"/>
<path id="Vector_5" d="M748.279 147.752L739.929 146.112L736.836 141.683C736.311 140.928 734.957 140.429 733.439 140.429C731.922 140.429 730.568 140.93 730.043 141.683L726.95 146.112L718.6 147.752C717.176 148.03 716.235 148.748 716.235 149.553C716.235 150.358 717.18 151.076 718.6 151.355L726.95 152.995L730.043 157.423C730.568 158.178 731.922 158.677 733.439 158.677C734.957 158.677 736.311 158.176 736.836 157.423L739.929 152.995L748.279 151.355C749.702 151.076 750.644 150.358 750.644 149.553C750.644 148.748 749.699 148.028 748.279 147.752Z" fill="#0038FF"/>
<path id="Vector_6" d="M549.205 156.64L540.855 155L537.766 150.571C537.237 149.817 535.883 149.317 534.369 149.317C532.855 149.317 531.501 149.819 530.972 150.571L527.88 155L519.529 156.64C518.11 156.919 517.165 157.639 517.165 158.442C517.165 159.244 518.11 159.965 519.529 160.243L527.88 161.883L530.972 166.312C531.501 167.066 532.855 167.566 534.369 167.566C535.883 167.566 537.237 167.065 537.766 166.312L540.855 161.883L549.205 160.243C550.625 159.965 551.57 159.246 551.57 158.442C551.57 157.637 550.628 156.917 549.205 156.64Z" fill="#FF5959"/>
<path id="Vector_7" d="M708.543 75.1579C698.911 71.9411 686.667 71.7164 674.076 74.5184C662.065 77.1936 651.063 82.3597 643.104 89.066C627.826 101.937 628.257 116.957 643.082 124.405C638.375 126.963 630.372 131.747 623.437 137.983C616.506 131.747 608.499 126.963 603.795 124.405C618.621 116.957 619.052 101.937 603.774 89.066C595.814 82.3616 584.816 77.1936 572.801 74.5184C560.206 71.7145 547.974 71.943 538.334 75.1579C519.015 81.6088 516.929 98.3458 533.692 112.463C545.964 122.803 564.99 128.916 581.887 128.916C586.797 128.916 591.508 128.374 595.839 127.297C600.37 129.724 610.567 135.657 618.059 143.439C610.093 152.707 606.193 164.149 616.727 175.947C617.538 176.853 619.236 177.383 621.011 177.383C621.692 177.383 622.38 177.306 623.035 177.141C623.194 177.101 623.296 177.028 623.444 176.98C623.593 177.028 623.694 177.101 623.853 177.141C624.509 177.306 625.197 177.383 625.878 177.383C627.652 177.383 629.35 176.853 630.162 175.947C640.692 164.149 636.796 152.705 628.829 143.439C636.325 135.657 646.519 129.723 651.053 127.295C655.384 128.374 660.095 128.916 665.005 128.916C681.902 128.916 700.928 122.801 713.2 112.463C729.949 98.3458 727.866 81.6088 708.543 75.1579ZM556.245 107.902C555.463 108.163 554.59 108.288 553.728 108.288C552.153 108.288 550.617 107.871 549.716 107.115C537.751 97.0341 539.435 86.6635 548.427 83.6579C550.639 82.9185 553.562 83.2719 554.956 84.4453C556.35 85.6187 555.684 87.1686 553.471 87.9079C550.277 88.9738 547.815 96.0892 557.726 104.439C559.124 105.613 558.457 107.163 556.245 107.902ZM623.441 171.483C618.193 164.07 619.388 156.742 623.441 150.208C627.493 156.742 628.688 164.07 623.441 171.483ZM692.034 86.8363C691.158 88.1422 688.453 88.824 685.983 88.3573C682.438 87.6775 670.361 91.0614 664.111 100.351C663.423 101.378 661.598 102.018 659.653 102.018C659.124 102.018 658.588 101.972 658.063 101.872C655.601 101.407 654.319 99.9705 655.195 98.6626C662.738 87.4451 679.161 81.7355 689.17 83.6272C691.629 84.0939 692.914 85.5304 692.034 86.8363Z" fill="#FFA73F"/>
</g>
<path id="Vector_8" d="M245.194 103.312C245.014 102.944 243.879 103.128 242.656 103.724C241.434 104.321 240.59 105.102 240.769 105.47C241.209 106.372 240.168 107.406 238.851 108.715C237.389 110.168 235.569 111.978 236.254 113.384C236.94 114.79 239.487 114.469 241.533 114.213C243.377 113.98 244.831 113.798 245.271 114.699C245.71 115.601 244.67 116.635 243.352 117.944C241.89 119.397 240.07 121.207 240.756 122.613C241.442 124.02 243.989 123.7 246.034 123.442C247.879 123.211 249.333 123.029 249.773 123.931C250.213 124.832 249.173 125.867 247.856 127.176C246.394 128.631 244.574 130.441 245.26 131.847C245.439 132.215 246.574 132.032 247.797 131.435C249.02 130.839 249.864 130.057 249.684 129.689C249.244 128.787 250.285 127.752 251.602 126.443C253.064 124.989 254.884 123.179 254.198 121.773C253.511 120.366 250.965 120.686 248.919 120.942C247.076 121.174 245.62 121.357 245.18 120.455C244.741 119.554 245.782 118.52 247.099 117.211C248.561 115.757 250.381 113.947 249.695 112.541C249.009 111.135 246.463 111.455 244.417 111.712C242.574 111.944 241.118 112.127 240.679 111.226C240.239 110.325 241.28 109.291 242.597 107.982C244.059 106.528 245.88 104.718 245.194 103.312Z" fill="#FF3FD5"/>
<path id="Vector_9" d="M44.7853 29.5033L40.147 20.8137L30.8806 25.76L35.5189 34.4495L44.7853 29.5033Z" fill="#FF6666"/>
<path id="Vector_10" d="M139.932 -12L137 -9.51099L160.911 18.6561L163.843 16.1671L139.932 -12Z" fill="#FF6666"/>
<path id="Vector_11" d="M169.513 201.498H165.667V212.002H169.513V201.498Z" fill="#FF6666"/>
<path id="Vector_12" d="M218.768 -0.0357305L209.003 1.26001L210.385 11.673L220.15 10.3773L218.768 -0.0357305Z" fill="#0500FF"/>
<path id="Vector_13" d="M107.551 36.0001L105 38.8787L112.861 45.846L115.412 42.9674L107.551 36.0001Z" fill="#02718C"/>
<path id="Vector_14" d="M4.09508 41.9165L2.32422 38.5027L-6.99994 43.3394L-5.22908 46.7532L4.09508 41.9165Z" fill="#FF3FD5"/>
<path id="Vector_15" d="M12.2709 150.381L-3.01221 163.048L3.69068 171.135L18.9738 158.469L12.2709 150.381Z" fill="#FF3FD5"/>
<path id="Vector_16" d="M170.948 77.2719L174.541 43.9651L165.592 43L162 76.3069L170.948 77.2719Z" fill="#FFA73F"/>
<path id="Vector_17" d="M170.948 77.2719L174.541 43.9651L167.672 43.2243L164.08 76.5312L170.948 77.2719Z" fill="#FFA73F"/>
<path id="Vector_18" d="M1025.64 76.5936L1011.04 46.4431L1004.82 49.4541L1019.42 79.6046L1025.64 76.5936Z" fill="#FFA73F"/>
<path id="Vector_19" d="M107.72 180.995L97.8838 177.31L96.5344 180.911L106.371 184.597L107.72 180.995Z" fill="#FFA73F"/>
<path id="Vector_20" d="M69.5668 7.80665L67.7959 4.39282L58.4717 9.22956L60.2426 12.6434L69.5668 7.80665Z" fill="#FFE454" fill-opacity="0.66"/>
<path id="Vector_21" d="M112.482 256L111 259.549L120.692 263.597L122.175 260.049L112.482 256Z" fill="#FFE454" fill-opacity="0.66"/>
<path id="Vector_22" d="M29.482 181.74L26.521 184.194L33.2239 192.281L36.1849 189.827L29.482 181.74Z" fill="#FFE454" fill-opacity="0.66"/>
<path id="Vector_23" d="M204.74 38.2613L194.903 34.5757L193.554 38.1771L203.39 41.8627L204.74 38.2613Z" fill="#FF588A" fill-opacity="0.76"/>
<path id="Vector_24" d="M394.582 98.2046L391.621 100.659L398.323 108.746L401.284 106.292L394.582 98.2046Z" fill="#FFA9A9"/>
<path id="Vector_25" d="M6.25077 108L-4 110.293L-3.16015 114.047L7.09062 111.754L6.25077 108Z" fill="#46EDED"/>
<path id="Vector_26" d="M75.7437 74.6187L65.6006 71.8884L64.6008 75.6028L74.7439 78.3331L75.7437 74.6187Z" fill="#46EDED"/>
<path id="Vector_27" d="M347.251 169L337 171.293L337.84 175.047L348.091 172.754L347.251 169Z" fill="#46EDED"/>
<path id="Vector_28" d="M1128.25 32L1118 34.2935L1118.84 38.0473L1129.09 35.7538L1128.25 32Z" fill="#46EDED"/>
<path id="Vector_29" d="M10.373 3.66322L9.20215 0L-0.803187 3.19801L0.36769 6.86123L10.373 3.66322Z" fill="#1CC900"/>
<path id="Vector_30" d="M50.4111 187.382L47 195.549L70.5297 205.377L73.9408 197.211L50.4111 187.382Z" fill="#1CC900"/>
<path id="Vector_31" d="M57.9223 103L57 106.734L67.1979 109.253L68.1203 105.519L57.9223 103Z" fill="#02718C"/>
<path id="Vector_32" d="M117.932 88L115 90.489L121.798 98.4967L124.73 96.0078L117.932 88Z" fill="#FF6666"/>
<path id="Vector_33" d="M23.961 73L21 75.4541L34.0816 91.2377L37.0426 88.7836L23.961 73Z" fill="#1CC900"/>
<path id="Vector_34" d="M1072.96 77L1070 79.4541L1083.08 95.2377L1086.04 92.7836L1072.96 77Z" fill="#1CC900"/>
<g id="Group">
<g id="Group_2">
<g id="Group_3">
<path id="Vector_35" fill-rule="evenodd" clip-rule="evenodd" d="M1282.41 311.5C1282.12 312.126 1281.38 312.398 1280.75 312.108C1280.12 311.817 1279.85 311.072 1280.14 310.447C1280.14 310.447 1282.88 304.506 1281.32 296.681C1281.01 295.112 1280.05 293.47 1279.07 291.822C1277.97 289.952 1276.84 288.079 1276.32 286.321C1275.21 282.567 1276.99 280.596 1278.97 278.842C1279.59 278.297 1280.23 277.779 1280.73 277.199C1281.29 276.553 1281.66 275.817 1281.43 274.775C1281.35 274.412 1281.07 274.212 1280.76 274.031C1280.17 273.692 1279.43 273.458 1278.68 273.165C1276.7 272.388 1274.75 271.282 1274.22 268.443C1273.88 266.66 1274.87 265.305 1276.34 264.104C1277.11 263.473 1278.01 262.876 1278.67 262.169C1279.11 261.702 1279.45 261.185 1279.35 260.495C1279.26 259.856 1278.74 259.04 1278.13 258.178C1276.42 255.796 1273.77 253.271 1273.77 253.271C1273.27 252.794 1273.25 252.003 1273.73 251.504C1274.21 251.004 1275 250.986 1275.5 251.463C1275.5 251.463 1278.33 254.169 1280.16 256.722C1281.06 257.976 1281.7 259.221 1281.83 260.152C1282.15 262.455 1280.53 264.016 1278.74 265.4C1278.21 265.804 1277.69 266.198 1277.27 266.625C1276.88 267.018 1276.57 267.423 1276.67 267.977C1277.1 270.217 1279.04 270.62 1280.54 271.199C1282.22 271.845 1283.53 272.668 1283.87 274.243C1284.42 276.772 1283.23 278.374 1281.62 279.837C1281.06 280.348 1280.45 280.843 1279.9 281.386C1278.89 282.387 1278.11 283.584 1278.71 285.612C1279.18 287.195 1280.23 288.867 1281.23 290.55C1282.35 292.456 1283.41 294.38 1283.77 296.194C1285.5 304.897 1282.41 311.5 1282.41 311.5ZM1251.14 252.008L1251.02 249.387C1250.97 248.457 1251.53 247.604 1252.4 247.273C1253.27 246.941 1254.26 247.208 1254.84 247.931L1256.49 249.972L1258.95 249.037C1259.82 248.705 1260.81 248.974 1261.39 249.702C1261.98 250.43 1262.03 251.452 1261.51 252.232L1260.08 254.409L1261.72 256.433C1262.3 257.159 1262.36 258.178 1261.85 258.96C1261.34 259.742 1260.39 260.107 1259.49 259.867L1256.94 259.184L1255.49 261.389C1254.98 262.167 1254.02 262.527 1253.12 262.281C1252.22 262.035 1251.58 261.238 1251.54 260.308L1251.42 257.706L1248.9 257.033C1247.99 256.792 1247.35 255.996 1247.3 255.063C1247.26 254.13 1247.81 253.274 1248.69 252.941L1251.14 252.008ZM1250.58 254.896L1252.31 255.357C1253.21 255.6 1253.86 256.399 1253.9 257.334L1253.99 259.122L1254.99 257.601C1255.5 256.826 1256.45 256.465 1257.34 256.705L1259.1 257.176L1257.98 255.784C1257.39 255.054 1257.34 254.03 1257.85 253.247L1258.83 251.756L1257.15 252.398C1256.28 252.729 1255.29 252.463 1254.71 251.738L1253.57 250.329L1253.65 252.14C1253.7 253.069 1253.14 253.923 1252.27 254.254L1250.58 254.896ZM1220.91 291.532L1219.81 289.151C1219.42 288.307 1219.62 287.306 1220.3 286.671C1220.98 286.037 1221.99 285.913 1222.81 286.363L1225.1 287.632L1227.02 285.841C1227.71 285.205 1228.72 285.081 1229.54 285.535C1230.35 285.991 1230.78 286.92 1230.6 287.835L1230.09 290.392L1232.37 291.651C1233.19 292.101 1233.62 293.027 1233.45 293.941C1233.27 294.857 1232.53 295.555 1231.6 295.67L1228.98 295.999L1228.47 298.587C1228.29 299.501 1227.54 300.194 1226.61 300.305C1225.69 300.416 1224.8 299.918 1224.4 299.071L1223.31 296.709L1220.72 297.034C1219.8 297.15 1218.9 296.656 1218.51 295.809C1218.11 294.963 1218.31 293.959 1218.99 293.322L1220.91 291.532ZM1221.48 294.419L1223.25 294.197C1224.18 294.081 1225.08 294.579 1225.47 295.429L1226.23 297.053L1226.58 295.266C1226.76 294.356 1227.5 293.665 1228.42 293.55L1230.23 293.323L1228.66 292.457C1227.84 292.004 1227.41 291.072 1227.59 290.154L1227.94 288.403L1226.62 289.633C1225.94 290.267 1224.93 290.391 1224.11 289.941L1222.53 289.064L1223.29 290.709C1223.68 291.555 1223.48 292.555 1222.8 293.189L1221.48 294.419ZM1263.54 298.182C1264.19 297.963 1264.9 298.317 1265.12 298.971C1265.34 299.625 1264.98 300.334 1264.33 300.553C1264.33 300.553 1256.77 303.019 1252.11 298.055C1249.83 295.614 1249.55 293.256 1249.52 291.154C1249.5 290.444 1249.52 289.769 1249.47 289.141C1249.42 288.467 1249.29 287.852 1248.78 287.349C1247.26 285.873 1245.84 285.998 1244.48 286.426C1243.75 286.658 1243.02 286.966 1242.31 287.223C1240.27 287.958 1238.29 288.263 1236.32 286.593C1235.11 285.578 1234.95 283.962 1235.11 282.084C1235.17 281.282 1235.28 280.424 1235.24 279.579C1235.2 278.567 1234.93 277.564 1233.94 276.771C1233.52 276.437 1232.98 276.406 1232.38 276.443C1231.51 276.497 1230.56 276.737 1229.59 276.967C1228.22 277.29 1226.84 277.594 1225.6 277.542C1224.59 277.501 1223.66 277.239 1222.85 276.662C1222.07 276.093 1221.34 274.954 1220.78 273.592C1219.68 270.882 1219.11 267.292 1219.11 267.292C1219.01 266.61 1219.47 265.97 1220.15 265.864C1220.84 265.757 1221.48 266.224 1221.58 266.906C1221.58 266.906 1221.96 269.324 1222.71 271.578C1223.13 272.862 1223.61 274.127 1224.32 274.633C1224.97 275.104 1225.8 275.101 1226.68 274.998C1227.85 274.86 1229.09 274.496 1230.28 274.242C1232.32 273.805 1234.19 273.772 1235.5 274.818C1237.72 276.593 1237.87 278.952 1237.69 281.194C1237.63 282.061 1237.51 282.898 1237.55 283.631C1237.57 284.047 1237.63 284.427 1237.93 284.682C1238.74 285.371 1239.57 285.389 1240.4 285.197C1241.15 285.024 1241.9 284.704 1242.67 284.414C1245.15 283.478 1247.73 282.826 1250.52 285.561C1251.77 286.781 1251.99 288.29 1252.01 290.042C1252.03 291.885 1251.82 294.084 1253.94 296.345C1257.59 300.236 1263.54 298.182 1263.54 298.182ZM1267.05 320.077C1267.6 320.491 1267.71 321.275 1267.3 321.827C1266.88 322.379 1266.1 322.491 1265.55 322.076C1258.04 316.448 1252.6 312.697 1243.49 311.008C1242.81 310.883 1242.36 310.23 1242.49 309.551C1242.62 308.873 1243.27 308.425 1243.95 308.551C1253.47 310.316 1259.2 314.188 1267.05 320.077ZM1235.35 307.631C1236.03 307.716 1236.52 308.341 1236.43 309.026C1236.35 309.711 1235.72 310.196 1235.04 310.112C1232.73 309.824 1231.14 310.026 1228.72 310.018C1228.03 310.016 1227.47 309.453 1227.47 308.764C1227.48 308.074 1228.04 307.516 1228.73 307.518C1231.27 307.526 1232.93 307.328 1235.35 307.631ZM1265.37 285.166C1265.68 285.779 1265.44 286.534 1264.83 286.85C1264.21 287.166 1263.46 286.925 1263.14 286.311C1260.44 281.056 1258.73 275.64 1259.92 269.769C1260.06 269.093 1260.72 268.655 1261.4 268.793C1262.07 268.929 1262.51 269.59 1262.37 270.265C1261.3 275.561 1262.92 280.427 1265.37 285.166ZM1297.56 298.791C1297.87 299.41 1297.61 300.16 1297 300.464C1296.38 300.77 1295.63 300.514 1295.32 299.895C1289.55 288.161 1287.56 277.148 1289.85 266.98C1290 266.307 1290.67 265.884 1291.34 266.035C1292.02 266.187 1292.44 266.856 1292.29 267.529C1290.11 277.191 1292.08 287.641 1297.56 298.791Z" fill="#FF6666"/>
</g>
</g>
</g>
<g id="Group_4">
<g id="Group_5">
<g id="Group_6">
<path id="Vector_36" fill-rule="evenodd" clip-rule="evenodd" d="M626.128 352.834C625.537 353.19 624.769 353 624.412 352.409C624.056 351.818 624.247 351.049 624.837 350.693C624.837 350.693 630.426 347.296 633.514 339.94C634.133 338.465 634.253 336.566 634.367 334.655C634.496 332.486 634.604 330.3 635.157 328.552C636.337 324.82 638.915 324.181 641.542 323.838C642.358 323.731 643.175 323.657 643.916 323.457C644.74 323.234 645.457 322.83 645.851 321.838C645.989 321.494 645.872 321.174 645.711 320.846C645.412 320.236 644.928 319.627 644.474 318.968C643.267 317.216 642.271 315.21 643.413 312.556C644.129 310.889 645.712 310.322 647.601 310.147C648.593 310.055 649.671 310.062 650.617 309.847C651.241 309.705 651.808 309.464 652.115 308.839C652.399 308.259 652.425 307.293 652.395 306.233C652.312 303.303 651.528 299.729 651.528 299.729C651.381 299.055 651.808 298.388 652.482 298.241C653.156 298.093 653.823 298.521 653.97 299.195C653.97 299.195 654.805 303.023 654.894 306.162C654.938 307.704 654.773 309.095 654.359 309.939C653.336 312.027 651.123 312.417 648.863 312.562C648.203 312.604 647.547 312.637 646.961 312.757C646.422 312.867 645.932 313.025 645.71 313.543C644.809 315.638 646.193 317.057 647.115 318.378C648.145 319.851 648.77 321.266 648.174 322.763C647.216 325.168 645.333 325.83 643.184 326.145C642.433 326.255 641.65 326.324 640.891 326.467C639.491 326.73 638.178 327.289 637.541 329.305C637.043 330.879 636.978 332.851 636.862 334.803C636.731 337.014 636.535 339.202 635.819 340.908C632.385 349.089 626.128 352.834 626.128 352.834ZM633.476 286.029L634.838 283.787C635.321 282.991 636.262 282.596 637.168 282.808C638.075 283.02 638.742 283.791 638.822 284.718L639.049 287.332L641.607 287.93C642.517 288.143 643.185 288.918 643.262 289.848C643.34 290.779 642.808 291.653 641.946 292.013L639.541 293.017L639.766 295.61C639.846 296.539 639.32 297.414 638.462 297.778C637.603 298.142 636.609 297.912 635.997 297.209L634.266 295.218L631.831 296.235C630.971 296.594 629.977 296.358 629.37 295.651C628.762 294.945 628.678 293.927 629.162 293.131L630.514 290.905L628.803 288.939C628.19 288.234 628.102 287.215 628.584 286.415C629.066 285.615 630.008 285.217 630.918 285.43L633.476 286.029ZM631.395 288.109L632.567 289.456C633.181 290.163 633.268 291.186 632.782 291.986L631.853 293.516L633.534 292.815C634.39 292.458 635.378 292.689 635.987 293.389L637.183 294.763L637.028 292.98C636.948 292.046 637.479 291.168 638.344 290.807L639.991 290.12L638.234 289.709C637.328 289.497 636.66 288.726 636.58 287.798L636.423 285.992L635.482 287.542C634.999 288.337 634.059 288.732 633.152 288.52L631.395 288.109ZM586.311 301.891L586.729 299.301C586.877 298.382 587.599 297.662 588.519 297.517C589.438 297.372 590.347 297.835 590.771 298.664L591.964 300.999L594.56 300.59C595.482 300.445 596.393 300.91 596.816 301.743C597.238 302.577 597.074 303.587 596.412 304.244L594.561 306.08L595.746 308.398C596.171 309.228 596.012 310.237 595.355 310.897C594.697 311.558 593.689 311.72 592.857 311.298L590.504 310.107L588.631 311.965C587.969 312.621 586.96 312.777 586.131 312.352C585.302 311.926 584.841 311.015 584.99 310.094L585.404 307.524L583.079 306.347C582.246 305.925 581.779 305.014 581.925 304.091C582.07 303.169 582.793 302.445 583.716 302.3L586.311 301.891ZM585.167 304.602L586.76 305.408C587.595 305.831 588.061 306.746 587.912 307.671L587.628 309.439L588.921 308.155C589.579 307.502 590.582 307.344 591.409 307.763L593.035 308.586L592.22 306.992C591.794 306.158 591.956 305.144 592.62 304.484L593.888 303.227L592.105 303.508C591.185 303.653 590.277 303.19 589.853 302.361L589.028 300.747L588.74 302.537C588.591 303.456 587.869 304.176 586.95 304.321L585.167 304.602ZM617.929 331.239C618.594 331.423 618.984 332.113 618.8 332.778C618.615 333.442 617.926 333.832 617.261 333.648C617.261 333.648 609.615 331.465 608.531 324.747C607.998 321.443 609.088 319.334 610.236 317.572C610.623 316.977 611.017 316.429 611.326 315.879C611.658 315.29 611.896 314.709 611.751 314.005C611.323 311.935 610.075 311.244 608.708 310.839C607.968 310.619 607.196 310.47 606.46 310.284C604.355 309.751 602.549 308.9 601.843 306.41C601.413 304.895 602.181 303.464 603.362 301.995C603.866 301.368 604.433 300.716 604.875 299.994C605.404 299.131 605.746 298.151 605.367 296.939C605.206 296.428 604.77 296.096 604.254 295.793C603.506 295.353 602.58 295.018 601.65 294.668C600.337 294.173 599.019 293.65 598.017 292.912C597.202 292.313 596.579 291.576 596.237 290.649C595.9 289.736 595.935 288.386 596.236 286.946C596.833 284.08 598.373 280.788 598.373 280.788C598.666 280.163 599.411 279.894 600.036 280.187C600.661 280.48 600.93 281.225 600.637 281.85C600.637 281.85 599.598 284.065 598.956 286.351C598.59 287.653 598.283 288.972 598.583 289.785C598.862 290.541 599.551 291.002 600.335 291.407C601.382 291.946 602.619 292.342 603.742 292.793C605.677 293.571 607.251 294.592 607.752 296.192C608.603 298.907 607.402 300.943 606.004 302.704C605.463 303.385 604.899 304.014 604.523 304.645C604.31 305.003 604.14 305.346 604.248 305.727C604.539 306.754 605.21 307.229 606.007 307.535C606.724 307.81 607.529 307.967 608.33 308.157C610.909 308.767 613.408 309.667 614.199 313.499C614.553 315.21 613.889 316.582 612.923 318.044C611.908 319.582 610.505 321.288 610.999 324.349C611.849 329.615 617.929 331.239 617.929 331.239ZM608.597 351.354C608.823 352.006 608.477 352.719 607.826 352.945C607.174 353.171 606.461 352.825 606.235 352.173C603.162 343.311 600.742 337.154 594.139 330.663C593.647 330.18 593.64 329.388 594.124 328.896C594.607 328.404 595.399 328.397 595.891 328.881C602.799 335.67 605.382 342.083 608.597 351.354ZM589.276 323.309C589.796 323.763 589.849 324.553 589.396 325.073C588.942 325.593 588.152 325.646 587.632 325.193C585.879 323.663 584.45 322.943 582.446 321.582C581.876 321.195 581.727 320.416 582.114 319.846C582.502 319.275 583.28 319.126 583.851 319.514C585.951 320.94 587.44 321.706 589.276 323.309ZM626.724 321.471C626.643 322.156 626.021 322.647 625.336 322.566C624.651 322.485 624.16 321.863 624.242 321.178C624.936 315.307 626.551 309.864 630.821 305.662C631.313 305.179 632.105 305.185 632.589 305.677C633.073 306.168 633.067 306.961 632.575 307.444C628.724 311.234 627.35 316.177 626.724 321.471ZM645.8 350.772C645.706 351.456 645.075 351.935 644.392 351.841C643.708 351.748 643.229 351.117 643.323 350.433C645.097 337.476 649.609 327.236 657.191 320.085C657.693 319.612 658.484 319.635 658.958 320.137C659.431 320.639 659.408 321.431 658.906 321.904C651.702 328.699 647.486 338.46 645.8 350.772Z" fill="#2C40F9"/>
</g>
</g>
</g>
<path id="Vector_37" d="M1179.5 52.384L1175.98 50.8196L1171.71 60.4157L1175.22 61.9801L1179.5 52.384Z" fill="#0500FF"/>
<path id="Vector_38" d="M1139.42 97L1129 98.3049L1129.48 102.121L1139.9 100.816L1139.42 97Z" fill="#FF588A" fill-opacity="0.76"/>
<path id="Vector_39" d="M1280.42 45L1270 46.3049L1270.48 50.121L1280.9 48.8161L1280.42 45Z" fill="#FF588A" fill-opacity="0.76"/>
<path id="Vector_40" d="M971.043 40.3496L967.385 39.1611L964.139 49.1509L967.797 50.3394L971.043 40.3496Z" fill="#FF6666"/>
<path id="Vector_41" d="M1038.63 118.666L1037.09 127.381L1068.12 132.851L1069.65 124.135L1038.63 118.666Z" fill="#0500FF"/>
</g>
<defs>
<clipPath id="clip0_157_39">
<rect width="1280" height="300" fill="white"/>
</clipPath>
</defs>
</svg>
