<?xml version="1.0" encoding="utf-8"?>
<!-- Generator: Adobe Illustrator 19.0.0, SVG Export Plug-In . SVG Version: 6.00 Build 0)  -->
<svg version="1.1" id="Layer_1" xmlns="http://www.w3.org/2000/svg" xmlns:xlink="http://www.w3.org/1999/xlink" x="0px" y="0px"
	 viewBox="-250 338.5 89.9 91" style="enable-background:new -250 338.5 89.9 91;" xml:space="preserve">
<style type="text/css">
	.st0{fill:#01556A;}
	.st1{fill:#FFA73F;}
</style>
<path class="st0" d="M-237.5,338.5c-6.9,0-12.5,5.6-12.5,12.5v17c0,3.3,1.3,6.5,3.7,8.8c0.8,0.8,1.8,1.5,2.8,2.1c0,0,0,0,0,0
	c0,0,0,0,0,0c1.8,1,3.9,1.5,5.9,1.5c4.3,0,9.5-1.3,14.4-3.6c0.6-0.3,1.3-0.2,1.9,0.1c0.6,0.4,0.9,1,0.9,1.6v32.8
	c0,2.8,2.3,5.1,5.1,5.1h2c2.8,0,5.1-2.3,5.1-5.1v-51.9C-208,347.9-225.9,338.5-237.5,338.5z M-243.8,377.5c-0.7-0.4-1.3-0.9-1.8-1.5
	c-2.2-2.2-3.4-5-3.4-8.1v-17c0-4,2.1-7.5,5.2-9.6V377.5z M-209,411.4c0,2.3-1.9,4.1-4.1,4.1h-2c-2.3,0-4.1-1.9-4.1-4.1v-2.9h10.3
	V411.4z M-209,407.5h-10.3v-28.9c0-1-0.5-1.9-1.4-2.5c-0.5-0.3-1-0.5-1.6-0.5c-0.4,0-0.9,0.1-1.3,0.3c-4.7,2.2-9.9,3.5-14,3.5
	c-1.8,0-3.6-0.5-5.3-1.3v-37.3c1.6-0.8,3.4-1.3,5.3-1.3c11,0,28.5,9.1,28.5,20V407.5z"/>
<path class="st0" d="M-236.3,349.6c-0.3,0-0.5,0.2-0.5,0.5v18.1c0,0.3,0.2,0.5,0.5,0.5s0.5-0.2,0.5-0.5v-18.1
	C-235.8,349.9-236.1,349.6-236.3,349.6z"/>
<path class="st0" d="M-172.5,351.5c-11.6,0-29.5,9.4-29.5,21v51.9c0,2.8,2.3,5.1,5.1,5.1h2c2.8,0,5.1-2.3,5.1-5.1v-32.8
	c0-0.7,0.3-1.3,0.9-1.6c0.6-0.4,1.3-0.4,1.9-0.1c4.9,2.3,10.1,3.6,14.4,3.6c2.1,0,4.1-0.5,5.9-1.5c0,0,0,0,0,0c0,0,0,0,0,0
	c1-0.6,2-1.3,2.8-2.1c2.4-2.4,3.7-5.5,3.7-8.8v-17C-160,357.1-165.6,351.5-172.5,351.5z M-190.7,424.4c0,2.3-1.9,4.1-4.1,4.1h-2
	c-2.3,0-4.1-1.9-4.1-4.1v-2.9h10.3V424.4z M-167.2,391.1c-1.6,0.8-3.4,1.3-5.3,1.3c-4.1,0-9.2-1.3-14-3.5c-0.9-0.4-2-0.4-2.8,0.2
	c-0.8,0.5-1.4,1.5-1.4,2.5v28.9H-201v-48c0-10.8,17.5-20,28.5-20c1.9,0,3.7,0.5,5.3,1.3V391.1z M-161,381c0,3.1-1.2,5.9-3.4,8.1
	c-0.6,0.6-1.2,1-1.8,1.5v-36.2c3.1,2,5.2,5.6,5.2,9.6V381z"/>
<path class="st0" d="M-173.7,362.6c-0.3,0-0.5,0.2-0.5,0.5v18.1c0,0.3,0.2,0.5,0.5,0.5s0.5-0.2,0.5-0.5v-18.1
	C-173.2,362.9-173.4,362.6-173.7,362.6z"/>
<path class="st1" d="M-190.7,424.4c0,2.3-1.9,4.1-4.1,4.1h-2c-2.3,0-4.1-1.9-4.1-4.1v-2.9h10.3V424.4z"/>
<path class="st1" d="M-209,411.4c0,2.3-1.9,4.1-4.1,4.1h-2c-2.3,0-4.1-1.9-4.1-4.1v-2.9h10.3V411.4z"/>
</svg>
