<?xml version="1.0" encoding="utf-8"?>
<!-- Generator: Adobe Illustrator 19.0.0, SVG Export Plug-In . SVG Version: 6.00 Build 0)  -->
<svg version="1.1" id="Layer_1" xmlns="http://www.w3.org/2000/svg" xmlns:xlink="http://www.w3.org/1999/xlink" x="0px" y="0px"
	 viewBox="-227.1 349.5 47 75" style="enable-background:new -227.1 349.5 47 75;" xml:space="preserve">
<style type="text/css">
	.st0{fill:#01556A;}
	.st1{fill:#FFA73F;}
</style>
<path class="st0" d="M-181.9,413c-0.2-1.8-0.8-3.1-1.8-3.8c-1.2-0.9-2.9-0.9-4.9-0.5c-1.6,0.4-3.4,1-5.3,1.7
	c-6.2,2.2-13.2,4.8-17.9-0.6c-5.1-5.8,1.4-13.6,6.7-19.9c0.3-0.3,0.5-0.6,0.8-0.9c3-3.7,5.3-6.6,4.4-8.4c0-0.1-0.1-0.1-0.1-0.2
	c12.7-0.5,15.4-12.2,15.9-16.1c0.8-0.2,1.4-0.9,1.4-1.7v-10.9c0-1-0.8-1.8-1.8-1.8c-0.7,0-1.3,0.4-1.6,1c-0.4-0.2-0.8-0.3-1.2-0.3
	c-1.6,0-2.8,1.7-3.1,3.9c0,0.2-0.1,0.5-0.1,0.8c0,0.3,0,0.5,0.1,0.7c0.2,2.2,1.5,3.9,3.1,3.9c0.4,0,0.7-0.1,1-0.3v3
	c0,0.6,0.4,1.2,0.9,1.5c0.2,0.1,0.3,0.2,0.5,0.2c-0.5,3.8-3.2,15.1-15.6,15.4c-0.1,0-0.2,0-0.3,0c-0.9-0.6-2.4-0.9-4.5-0.9
	c-3.3,0-6.1-0.6-8.4-1.5c-8.2-3.2-10.4-11-11-13.5c0,0,0.1,0,0.1,0c0.6-0.3,1.1-0.9,1.1-1.6v-3c0.3,0.2,0.6,0.3,1,0.3
	c1.6,0,2.9-1.7,3.1-3.9c0-0.2,0.1-0.5,0.1-0.7c0-0.3,0-0.5-0.1-0.7c-0.2-2.2-1.5-3.9-3.1-3.9c-0.4,0-0.8,0.1-1.2,0.3
	c-0.3-0.6-0.9-1-1.6-1c-1,0-1.8,0.8-1.8,1.8v10.9c0,0.9,0.7,1.7,1.6,1.7c0.6,2.7,3.1,11.4,12.6,14.5c2.1,0.7,4.6,1.1,7.5,1.1
	c2.7,0,4.3,0.4,4.7,1.3c0.7,1.4-1.6,4.3-4.2,7.5c-0.3,0.3-0.6,0.7-0.9,1c-5.4,6.5-12.2,14.6-6.7,20.9c5.1,5.8,12.7,3,18.8,0.8
	c2.1-0.7,4-1.4,5.6-1.8c1.6-0.3,3-0.3,4,0.4c0.8,0.6,1.3,1.7,1.5,3.3c-0.8,0.1-1.5,0.4-1.5,1v0.2v5.1c0,0.6,0.7,0.9,1.5,1v3.7
	c0,0.3,0.2,0.5,0.5,0.5s0.5-0.2,0.5-0.5v-3.7c0.8-0.1,1.6-0.5,1.6-1.1V414C-180.2,413.4-181,413-181.9,413z M-182.7,419.6
	c-0.4-0.1-0.7-0.2-0.7-0.3l0-4.1l0-1.1c0-0.1,0.3-0.2,0.8-0.3c0.1,0,0.2,0,0.4,0c0,0,0,0,0,0c0.1,0,0.2,0,0.3,0
	c0.6,0.1,0.9,0.2,0.9,0.3l0,5.2c0,0.1-0.3,0.2-0.8,0.3c-0.1,0-0.3,0-0.4,0C-182.4,419.6-182.5,419.6-182.7,419.6z M-185,363.5
	c-0.4-0.1-0.7-0.5-0.7-0.9v-3.5c0.8-0.8,1.4-2.2,1.4-3.8c0-1.6-0.5-3-1.3-3.8c0.1-0.4,0.5-0.7,1-0.7c0.6,0,1,0.5,1,1v10.9
	c0,0.4-0.2,0.7-0.5,0.9c-0.1,0.1-0.2,0.1-0.4,0.1c0,0-0.1,0-0.1,0C-184.7,363.5-184.8,363.5-185,363.5
	C-184.9,363.5-184.9,363.5-185,363.5z M-189.8,355.8c0-0.2,0-0.4,0-0.6c0-0.2,0-0.4,0-0.6c0.2-1.1,0.8-2,1.5-2
	c0.8,0,1.5,1.2,1.5,2.6s-0.7,2.6-1.5,2.6C-189,357.8-189.6,356.9-189.8,355.8z M-188.3,358.5c0.8,0,1.5-0.5,1.9-1.4
	c0.2-0.4,0.3-0.8,0.4-1.3c0-0.2,0-0.4,0-0.7s0-0.5,0-0.7c-0.1-0.5-0.2-0.9-0.4-1.3c-0.4-0.8-1.1-1.4-1.9-1.4c-0.1,0-0.3,0-0.4,0.1
	c0.4-0.4,0.8-0.6,1.3-0.6c0.4,0,0.7,0.1,1,0.4c0.1,0.1,0.3,0.2,0.4,0.4c0.1,0.2,0.3,0.3,0.4,0.6c0.4,0.7,0.6,1.6,0.6,2.6
	c0,1-0.2,1.9-0.6,2.6c-0.1,0.2-0.2,0.4-0.4,0.6c-0.1,0.1-0.2,0.3-0.4,0.4c-0.3,0.2-0.6,0.4-1,0.4c-0.5,0-0.9-0.2-1.3-0.6
	C-188.5,358.5-188.4,358.5-188.3,358.5z M-226.4,362.1v-10.9c0-0.6,0.5-1,1-1c0.5,0,0.8,0.3,1,0.7c-0.8,0.8-1.3,2.2-1.3,3.8
	c0,1.6,0.5,3,1.4,3.8v3.5c0,0.4-0.2,0.7-0.6,0.9c-0.1,0-0.2,0.1-0.3,0.1c0,0,0,0-0.1,0c0,0-0.1,0-0.1,0c-0.1,0-0.2,0-0.3-0.1
	C-226.1,362.9-226.4,362.6-226.4,362.1z M-222.6,350.9c0.5,0,0.9,0.2,1.3,0.6c-0.1,0-0.3-0.1-0.4-0.1c-0.8,0-1.5,0.5-1.9,1.4
	c-0.2,0.4-0.3,0.8-0.4,1.3c0,0.2,0,0.4,0,0.7s0,0.5,0,0.7c0.1,0.5,0.2,0.9,0.4,1.3c0.4,0.8,1.1,1.4,1.9,1.4c0.1,0,0.3,0,0.4-0.1
	c-0.4,0.4-0.8,0.6-1.3,0.6c-0.4,0-0.7-0.1-1-0.4c-0.1-0.1-0.3-0.2-0.4-0.4c-0.1-0.2-0.3-0.3-0.4-0.5c-0.4-0.7-0.6-1.6-0.6-2.6
	c0-1,0.2-1.9,0.6-2.6c0.1-0.2,0.2-0.4,0.4-0.6c0.1-0.1,0.2-0.3,0.4-0.4C-223.3,351.1-223,350.9-222.6,350.9z M-220.3,354.2
	c0,0.2,0,0.4,0,0.6c0,0.2,0,0.4,0,0.6c-0.2,1.1-0.8,2-1.5,2c-0.8,0-1.5-1.2-1.5-2.6s0.7-2.6,1.5-2.6
	C-221,352.2-220.4,353.1-220.3,354.2z"/>
<path class="st1" d="M-182.7,419.6c-0.4-0.1-0.7-0.2-0.7-0.3l0-4.1l0-1.1c0-0.1,0.3-0.2,0.8-0.3c0.1,0,0.2,0,0.4,0c0,0,0,0,0,0
	c0.1,0,0.2,0,0.3,0c0.6,0.1,0.9,0.2,0.9,0.3l0,5.2c0,0.1-0.3,0.2-0.8,0.3c-0.1,0-0.3,0-0.4,0C-182.4,419.6-182.5,419.6-182.7,419.6z
	"/>
</svg>
