<svg width="226" height="168" viewBox="0 0 226 168" fill="none" xmlns="http://www.w3.org/2000/svg">
<g id="gauge-chart-mod">
<g id="normal">
<path id="Vector" d="M60.1578 118C60.1578 110.56 61.762 103.6 64.9704 97.12L12.5663 70C4.54525 84.4 0 100.72 0 118C0 135.28 4.54525 151.6 12.5663 166L64.9704 138.88C61.762 132.4 60.1578 125.44 60.1578 118Z" fill="#C5E0B4"/>
<path id="Normal" d="M13.1334 136.422L24.7687 136.261L24.7875 137.625L15.7394 144.091L15.741 144.205L24.8765 144.079L24.8959 145.488L13.2606 145.648L13.2418 144.284L22.3123 137.795L22.3107 137.682L13.1525 137.808L13.1334 136.422ZM24.8652 130.076C24.8761 130.864 24.6981 131.558 24.3314 132.157C23.9645 132.753 23.4463 133.223 22.7768 133.565C22.1071 133.904 21.3216 134.08 20.4202 134.092C19.5112 134.105 18.7154 133.951 18.0329 133.631C17.3503 133.307 16.8175 132.852 16.4344 132.266C16.0512 131.677 15.8542 130.988 15.8433 130.2C15.8325 129.413 16.0104 128.721 16.3773 128.125C16.744 127.525 17.2641 127.056 17.9375 126.717C18.6109 126.374 19.4021 126.196 20.3111 126.184C21.2125 126.171 22.0026 126.327 22.6814 126.651C23.3601 126.971 23.8911 127.426 24.2742 128.016C24.6574 128.601 24.8543 129.288 24.8652 130.076ZM23.6608 130.093C23.6525 129.494 23.4923 129.004 23.1802 128.622C22.8681 128.24 22.4608 127.959 21.9583 127.781C21.4558 127.602 20.9129 127.517 20.3296 127.525C19.7463 127.533 19.2041 127.633 18.7029 127.826C18.2017 128.018 17.7985 128.31 17.4933 128.7C17.188 129.091 17.0395 129.585 17.0478 130.184C17.056 130.782 17.2181 131.272 17.534 131.655C17.8499 132.037 18.261 132.317 18.7673 132.496C19.2736 132.674 19.8184 132.759 20.4017 132.751C20.9849 132.743 21.5253 132.643 22.0227 132.451C22.5201 132.258 22.9195 131.967 23.221 131.576C23.5224 131.186 23.669 130.691 23.6608 130.093ZM24.6007 124.078L15.8742 124.198L15.8564 122.903L17.1744 122.884L17.1732 122.794C16.7392 122.64 16.3849 122.357 16.1102 121.945C15.8356 121.532 15.6946 121.064 15.6874 120.541C15.6861 120.443 15.6863 120.32 15.688 120.172C15.6898 120.024 15.6939 119.912 15.7004 119.836L17.0639 119.818C17.0532 119.863 17.0376 119.968 17.0171 120.131C16.9928 120.29 16.9819 120.459 16.9843 120.637C16.9902 121.061 17.0844 121.439 17.267 121.769C17.4458 122.097 17.6918 122.355 18.005 122.543C18.3144 122.729 18.6661 122.818 19.06 122.813L24.5822 122.737L24.6007 124.078ZM24.5186 118.125L15.7921 118.245L15.7743 116.95L17.1378 116.931L17.1362 116.818C16.6678 116.642 16.3021 116.354 16.0389 115.952C15.772 115.55 15.6346 115.065 15.6268 114.497C15.6189 113.922 15.7429 113.441 15.999 113.055C16.2512 112.665 16.6088 112.359 17.0717 112.136L17.0704 112.045C16.6166 111.828 16.2541 111.498 15.9828 111.055C15.7077 110.611 15.5659 110.077 15.5572 109.452C15.5465 108.672 15.782 108.031 16.2637 107.528C16.7417 107.025 17.4939 106.766 18.5203 106.752L24.3606 106.672L24.3791 108.012L18.5388 108.093C17.8949 108.102 17.4371 108.284 17.1655 108.64C16.8939 108.996 16.7614 109.413 16.7679 109.89C16.7764 110.504 16.9685 110.977 17.3444 111.309C17.7164 111.641 18.1846 111.803 18.7489 111.795L24.4302 111.717L24.449 113.08L18.4723 113.163C17.9761 113.169 17.5788 113.336 17.2802 113.662C16.9779 113.988 16.8302 114.405 16.8372 114.913C16.842 115.261 16.9393 115.585 17.129 115.886C17.3188 116.183 17.5797 116.421 17.9117 116.602C18.24 116.78 18.6181 116.865 19.0461 116.86L24.5001 116.784L24.5186 118.125ZM24.496 101.649C24.5036 102.202 24.4063 102.706 24.2043 103.159C23.9984 103.613 23.6984 103.975 23.3044 104.246C22.9065 104.516 22.4236 104.656 21.8554 104.663C21.3555 104.67 20.9489 104.577 20.6356 104.385C20.3185 104.192 20.0687 103.932 19.8861 103.605C19.7036 103.278 19.566 102.916 19.4734 102.52C19.377 102.12 19.2994 101.717 19.2408 101.313C19.1653 100.783 19.1083 100.354 19.0696 100.025C19.0272 99.6924 18.9613 99.4509 18.8721 99.3006C18.7829 99.1465 18.6303 99.071 18.4144 99.0739L18.369 99.0746C17.8084 99.0823 17.375 99.2417 17.0686 99.5528C16.7622 99.86 16.6133 100.322 16.6218 100.94C16.6306 101.58 16.7777 102.08 17.063 102.439C17.3483 102.799 17.651 103.051 17.9712 103.194L17.5342 104.473C17.0008 104.253 16.5838 103.956 16.2832 103.581C15.9787 103.203 15.7646 102.789 15.641 102.34C15.5135 101.887 15.4468 101.441 15.4407 101.001C15.4368 100.721 15.4665 100.399 15.5297 100.034C15.589 99.666 15.7186 99.31 15.9184 98.9663C16.1182 98.6188 16.4229 98.3286 16.8326 98.0957C17.2423 97.8627 17.7937 97.7415 18.4868 97.7319L24.2363 97.6526L24.2548 98.9934L23.0731 99.0097L23.074 99.0779C23.2646 99.1662 23.4694 99.3149 23.6882 99.524C23.907 99.7331 24.0946 100.013 24.2509 100.363C24.4073 100.713 24.489 101.142 24.496 101.649ZM23.2887 101.462C23.2814 100.931 23.1711 100.486 22.9578 100.125C22.7444 99.7605 22.4716 99.4877 22.1396 99.3067C21.8074 99.1219 21.4596 99.0319 21.096 99.037L19.8688 99.0539C19.9378 99.1098 20.002 99.2339 20.0615 99.4263C20.1171 99.6149 20.1675 99.8339 20.2126 100.083C20.2539 100.329 20.2913 100.569 20.3248 100.803C20.3545 101.034 20.3798 101.221 20.4007 101.365C20.451 101.713 20.5293 102.037 20.6358 102.339C20.7384 102.637 20.8913 102.877 21.0946 103.06C21.2941 103.239 21.5643 103.326 21.9051 103.322C22.371 103.315 22.7209 103.138 22.9547 102.79C23.1847 102.438 23.2961 101.996 23.2887 101.462ZM12.5488 94.0251L24.1841 93.8646L24.2025 95.2054L12.5673 95.3658L12.5488 94.0251Z" fill="black"/>
</g>
<g id="mild">
<path id="Vector_2" d="M109.853 63.24V9C73.9008 11.16 40.5168 29.64 21 57L71.076 84.12C80.3208 72.84 94.4448 64.92 109.853 63.24Z" fill="#FFFF00"/>
<path id="Mild" d="M59.4525 41.2407L60.909 40.3998L69.1633 46.7875L69.2814 46.7193L67.8766 36.377L69.3331 35.5361L75.1513 45.6135L74.0097 46.2726L69.5893 38.6162L69.4908 38.673L70.7621 48.1476L69.6599 48.784L62.0903 42.9457L61.9918 43.0025L66.4123 50.659L65.2707 51.3181L59.4525 41.2407ZM77.4406 44.2918L73.077 36.7337L74.2382 36.0633L78.6019 43.6213L77.4406 44.2918ZM72.9402 35.1332C72.7138 35.2638 72.4741 35.2994 72.2211 35.24C71.9713 35.1786 71.784 35.0396 71.659 34.8231C71.534 34.6066 71.5073 34.3749 71.579 34.1279C71.654 33.879 71.8047 33.6893 72.0311 33.5586C72.2574 33.4279 72.4955 33.3932 72.7452 33.4546C72.9983 33.5141 73.1873 33.6521 73.3123 33.8686C73.4373 34.0851 73.4623 34.3178 73.3873 34.5667C73.3155 34.8136 73.1665 35.0025 72.9402 35.1332ZM76.0719 31.6455L81.89 41.7229L80.7288 42.3933L74.9106 32.316L76.0719 31.6455ZM86.9618 39.0046C86.332 39.3683 85.6841 39.5302 85.0182 39.4904C84.3504 39.4473 83.7117 39.2124 83.1023 38.7857C82.4911 38.3557 81.9544 37.7405 81.4922 36.9401C81.0339 36.1463 80.7723 35.3788 80.7075 34.6377C80.6426 33.8966 80.7611 33.2268 81.0629 32.6283C81.3647 32.0298 81.8338 31.5468 82.4701 31.1794C82.9622 30.8953 83.3983 30.7529 83.7784 30.7521C84.1599 30.7462 84.4857 30.803 84.7559 30.9225C85.0275 31.0369 85.2438 31.1351 85.4049 31.217L85.5033 31.1602L83.3556 27.4403L84.5168 26.7698L90.335 36.8472L89.2131 37.4949L88.5427 36.3336L88.4049 36.4132C88.3991 36.6002 88.3782 36.8441 88.3419 37.145C88.3038 37.4426 88.1861 37.7577 87.9888 38.0902C87.7897 38.4195 87.4473 38.7243 86.9618 39.0046ZM86.517 37.8706C86.9828 37.6016 87.3064 37.253 87.4877 36.8246C87.6672 36.393 87.7155 35.9124 87.6328 35.3828C87.5482 34.8499 87.3412 34.298 87.0116 33.7273C86.6859 33.163 86.3188 32.7167 85.9105 32.3882C85.5002 32.0564 85.0662 31.8653 84.6084 31.8147C84.1486 31.7608 83.6826 31.8703 83.2102 32.143C82.7181 32.4271 82.381 32.7901 82.1988 33.2321C82.018 33.6689 81.9696 34.1495 82.0537 34.674C82.1392 35.1932 82.3353 35.7186 82.6421 36.25C82.9527 36.788 83.3169 37.2294 83.7348 37.5743C84.1539 37.914 84.6007 38.1197 85.0751 38.1913C85.5509 38.2578 86.0315 38.1509 86.517 37.8706Z" fill="black"/>
</g>
<g id="moderate">
<path id="Vector_3" d="M141.164 71.6093C147.764 75.7697 153.076 80.8555 157.101 86.8667L209.304 63.0341C200.839 49.0126 188.803 36.5041 173.474 26.8413C158.146 17.1784 141.228 11.4349 124.146 9.35155L120.057 63.5148C127.316 64.6165 134.564 67.4489 141.164 71.6093Z" fill="#F8CBAD"/>
<path id="Moderate" d="M133.986 22.678L135.457 23.4934L134.233 33.8586L134.352 33.9247L142.493 27.3939L143.964 28.2093L138.323 38.3867L137.17 37.7476L141.456 30.0152L141.357 29.9601L133.89 35.9295L132.777 35.3125L133.883 25.8171L133.783 25.762L129.497 33.4945L128.344 32.8554L133.986 22.678ZM143.648 41.5461C142.959 41.1641 142.445 40.665 142.107 40.0487C141.772 39.4343 141.622 38.7514 141.657 38.0001C141.696 37.2506 141.934 36.4816 142.371 35.6931C142.811 34.898 143.34 34.2838 143.957 33.8506C144.577 33.4192 145.237 33.1827 145.935 33.1412C146.637 33.1015 147.333 33.2727 148.022 33.6547C148.711 34.0366 149.223 34.5349 149.558 35.1493C149.897 35.7656 150.045 36.4502 150.005 37.2029C149.968 37.9576 149.729 38.7324 149.288 39.5275C148.851 40.316 148.323 40.9243 147.705 41.3524C147.09 41.7824 146.431 42.0172 145.729 42.0568C145.031 42.0983 144.337 41.9281 143.648 41.5461ZM144.232 40.4926C144.755 40.7828 145.26 40.8873 145.747 40.8063C146.234 40.7252 146.679 40.5111 147.084 40.1637C147.489 39.8164 147.832 39.3876 148.115 38.8774C148.398 38.3673 148.58 37.8469 148.662 37.3162C148.744 36.7856 148.692 36.2908 148.504 35.8319C148.317 35.3729 147.961 34.9983 147.438 34.7082C146.915 34.418 146.409 34.3151 145.92 34.3995C145.432 34.4838 144.984 34.7013 144.577 35.052C144.171 35.4026 143.826 35.833 143.543 36.3432C143.261 36.8534 143.079 37.3722 142.999 37.8994C142.919 38.4267 142.974 38.9182 143.163 39.3739C143.352 39.8295 143.708 40.2025 144.232 40.4926ZM151.779 46.0533C151.143 45.7007 150.67 45.2288 150.362 44.6375C150.054 44.0429 149.927 43.3745 149.979 42.6324C150.033 41.8869 150.283 41.11 150.732 40.3017C151.176 39.4999 151.699 38.8804 152.301 38.4431C152.903 38.0059 153.538 37.7624 154.206 37.7129C154.875 37.6633 155.53 37.8166 156.173 38.1729C156.67 38.4484 157.017 38.7488 157.213 39.0742C157.415 39.3981 157.534 39.7067 157.571 39.9999C157.612 40.2916 157.64 40.5276 157.652 40.7079L157.752 40.763L159.834 37.0061L161.007 37.6562L155.366 47.8336L154.233 47.2055L154.883 46.0327L154.743 45.9556C154.58 46.047 154.36 46.1546 154.084 46.2785C153.809 46.3991 153.478 46.4605 153.092 46.4627C152.707 46.4616 152.269 46.3251 151.779 46.0533ZM152.522 45.088C152.992 45.3487 153.458 45.4465 153.918 45.3813C154.381 45.3128 154.818 45.1067 155.229 44.7631C155.642 44.4161 156.009 43.9544 156.328 43.378C156.644 42.8081 156.838 42.2636 156.909 41.7444C156.982 41.2219 156.922 40.7514 156.73 40.3329C156.539 39.9111 156.205 39.568 155.728 39.3035C155.231 39.0281 154.747 38.9261 154.274 38.9975C153.806 39.0675 153.369 39.2736 152.963 39.6158C152.562 39.9565 152.213 40.3952 151.915 40.9319C151.614 41.4752 151.423 42.0147 151.343 42.5505C151.268 43.0848 151.321 43.5737 151.504 44.0172C151.692 44.4593 152.032 44.8162 152.522 45.088ZM160.789 51.0474C160.053 50.6397 159.509 50.1257 159.155 49.5054C158.807 48.8836 158.651 48.1996 158.688 47.4535C158.73 46.7058 158.968 45.9411 159.401 45.1592C159.834 44.3774 160.359 43.7672 160.974 43.3288C161.595 42.889 162.255 42.644 162.954 42.5941C163.658 42.5426 164.354 42.7079 165.044 43.0899C165.441 43.3102 165.797 43.5941 166.111 43.9415C166.425 44.2889 166.659 44.6998 166.812 45.1742C166.966 45.6454 167.003 46.1768 166.922 46.7685C166.841 47.3602 166.603 48.0121 166.208 48.7244L165.932 49.2214L160.049 45.9599L160.611 44.9461L165.302 47.5465C165.54 47.1158 165.667 46.6838 165.682 46.2503C165.701 45.8188 165.607 45.418 165.4 45.0481C165.197 44.68 164.884 44.3784 164.46 44.1434C163.992 43.8844 163.524 43.7764 163.054 43.8191C162.59 43.8604 162.164 44.0144 161.778 44.2811C161.392 44.5479 161.082 44.8916 160.849 45.3124L160.475 45.9882C160.155 46.5647 159.984 47.1084 159.96 47.6195C159.942 48.129 160.054 48.5873 160.296 48.9944C160.54 49.3981 160.899 49.7313 161.372 49.9939C161.681 50.1647 161.983 50.2759 162.279 50.3275C162.58 50.3776 162.871 50.3654 163.15 50.2908C163.432 50.2129 163.696 50.069 163.942 49.859L164.899 50.8051C164.566 51.1233 164.179 51.3501 163.735 51.4856C163.294 51.6177 162.821 51.6501 162.317 51.5829C161.815 51.5124 161.305 51.3339 160.789 51.0474ZM165.821 53.6292L170.052 45.9962L171.185 46.6242L170.546 47.7771L170.626 47.8212C170.974 47.5207 171.396 47.3538 171.891 47.3206C172.386 47.2874 172.862 47.3975 173.319 47.6509C173.405 47.6986 173.512 47.76 173.639 47.8349C173.766 47.9098 173.861 47.969 173.924 48.0123L173.263 49.205C173.229 49.173 173.146 49.1076 173.014 49.0088C172.888 48.9084 172.747 48.8151 172.591 48.7288C172.22 48.5231 171.846 48.4174 171.468 48.4115C171.095 48.4041 170.749 48.4894 170.43 48.6674C170.115 48.8439 169.862 49.1045 169.672 49.449L166.994 54.2793L165.821 53.6292ZM173.175 57.9393C172.691 57.6712 172.303 57.3368 172.01 56.9361C171.718 56.532 171.553 56.0918 171.514 55.6154C171.477 55.1356 171.596 54.6473 171.871 54.1504C172.114 53.713 172.396 53.4063 172.719 53.2301C173.044 53.0507 173.393 52.9629 173.768 52.967C174.142 52.9711 174.525 53.0314 174.915 53.148C175.31 53.2632 175.698 53.3958 176.078 53.5459C176.575 53.7434 176.976 53.9071 177.28 54.037C177.59 54.1655 177.833 54.2284 178.007 54.2256C178.186 54.2247 178.327 54.1299 178.432 53.941L178.454 53.9013C178.725 53.4109 178.802 52.9556 178.685 52.5352C178.57 52.1166 178.243 51.7576 177.703 51.4583C177.143 51.148 176.636 51.0272 176.182 51.0961C175.728 51.1649 175.36 51.3027 175.076 51.5094L174.183 50.4948C174.639 50.1412 175.104 49.927 175.579 49.8522C176.059 49.7759 176.524 49.7957 176.975 49.9116C177.432 50.0259 177.852 50.1896 178.236 50.4026C178.481 50.5385 178.746 50.7244 179.031 50.9604C179.322 51.1948 179.566 51.4841 179.765 51.8283C179.967 52.1743 180.068 52.583 180.066 53.0543C180.065 53.5256 179.896 54.0643 179.56 54.6706L176.773 59.6997L175.6 59.0496L176.173 58.016L176.113 57.9829C175.942 58.1045 175.711 58.2083 175.421 58.2943C175.131 58.3803 174.795 58.4041 174.413 58.3659C174.032 58.3276 173.619 58.1854 173.175 57.9393ZM173.938 56.985C174.402 57.2421 174.843 57.3677 175.262 57.3618C175.685 57.3577 176.057 57.2565 176.379 57.0583C176.704 56.8619 176.955 56.6046 177.131 56.2866L177.726 55.2132C177.644 55.2453 177.504 55.2393 177.308 55.1954C177.116 55.1499 176.901 55.0848 176.662 55.0001C176.428 54.9138 176.202 54.8271 175.981 54.7397C175.767 54.6509 175.592 54.5798 175.456 54.5266C175.13 54.3974 174.809 54.3041 174.494 54.2466C174.185 54.1877 173.9 54.201 173.641 54.2866C173.386 54.3708 173.176 54.5619 173.011 54.8601C172.785 55.2676 172.765 55.6592 172.951 56.0351C173.142 56.4094 173.471 56.7261 173.938 56.985ZM186.464 55.0933L185.913 56.0871L181.957 53.8945L182.508 52.9006L186.464 55.0933ZM184.675 51.7109L185.848 52.361L181.815 59.6362C181.631 59.9675 181.542 60.2426 181.546 60.4615C181.555 60.679 181.62 60.8581 181.742 60.9989C181.868 61.1382 182.017 61.2556 182.19 61.3511C182.319 61.4227 182.428 61.4748 182.519 61.5075C182.611 61.5368 182.684 61.5603 182.739 61.5779L182.394 62.7637C182.298 62.7494 182.17 62.7177 182.011 62.6686C181.851 62.6227 181.661 62.5392 181.442 62.418C181.111 62.2344 180.826 61.9832 180.587 61.6644C180.351 61.3475 180.209 60.9854 180.162 60.5782C180.119 60.1728 180.22 59.7481 180.466 59.3042L184.675 51.7109ZM187.027 65.5917C186.292 65.184 185.747 64.67 185.394 64.0497C185.045 63.4279 184.89 62.7439 184.927 61.9977C184.969 61.2501 185.206 60.4854 185.64 59.7035C186.073 58.9216 186.597 58.3115 187.213 57.8731C187.834 57.4332 188.493 57.1883 189.192 57.1384C189.896 57.0869 190.593 57.2522 191.282 57.6341C191.68 57.8545 192.036 58.1384 192.35 58.4858C192.664 58.8331 192.897 59.2441 193.05 59.7185C193.205 60.1897 193.241 60.7211 193.16 61.3128C193.079 61.9044 192.841 62.5564 192.446 63.2687L192.171 63.7656L186.287 60.5042L186.849 59.4904L191.54 62.0908C191.779 61.6601 191.906 61.228 191.921 60.7946C191.939 60.3631 191.845 59.9623 191.639 59.5924C191.436 59.2243 191.122 58.9227 190.698 58.6877C190.231 58.4287 189.763 58.3206 189.293 58.3634C188.828 58.4047 188.403 58.5587 188.017 58.8254C187.631 59.0922 187.321 59.4359 187.088 59.8566L186.713 60.5325C186.394 61.1089 186.222 61.6527 186.199 62.1637C186.181 62.6733 186.292 63.1316 186.535 63.5387C186.778 63.9424 187.137 64.2756 187.611 64.5382C187.919 64.709 188.221 64.8202 188.518 64.8718C188.819 64.9219 189.109 64.9096 189.389 64.8351C189.67 64.7572 189.934 64.6132 190.18 64.4033L191.137 65.3494C190.805 65.6676 190.417 65.8944 189.974 66.0298C189.533 66.162 189.06 66.1944 188.556 66.1272C188.053 66.0567 187.544 65.8782 187.027 65.5917Z" fill="black"/>
</g>
<g id="severe">
<path id="Vector_4" d="M165.659 116.609C165.269 124.039 163.366 130.909 159.95 137.218L208.794 166.936C217.242 152.958 222.455 136.889 223.36 119.633C224.264 102.377 220.759 85.8505 213.819 71.0671L162.136 95.5157C164.886 101.908 166.048 109.179 165.659 116.609Z" fill="#FF0000"/>
<path id="Severe" d="M209.554 99.2671C210.132 99.219 210.589 98.9583 210.924 98.4849C211.258 98.0114 211.438 97.4226 211.463 96.7185C211.481 96.2037 211.413 95.7503 211.26 95.3583C211.107 94.9702 210.888 94.6631 210.604 94.4372C210.32 94.215 209.993 94.0974 209.622 94.0845C209.311 94.0736 209.042 94.1381 208.813 94.278C208.589 94.4217 208.398 94.6084 208.242 94.8379C208.09 95.0676 207.962 95.3095 207.859 95.5636C207.759 95.8179 207.677 96.0519 207.613 96.2657L207.253 97.4357C207.163 97.7357 207.042 98.0688 206.889 98.4349C206.736 98.8048 206.532 99.1559 206.278 99.4881C206.027 99.8243 205.711 100.097 205.328 100.308C204.946 100.518 204.482 100.614 203.937 100.595C203.308 100.573 202.746 100.388 202.25 100.041C201.754 99.6978 201.368 99.2067 201.091 98.5679C200.814 97.9328 200.69 97.1686 200.722 96.2752C200.751 95.4424 200.91 94.7259 201.2 94.1258C201.49 93.5295 201.882 93.0656 202.375 92.7341C202.867 92.4064 203.433 92.231 204.07 92.2078L204.019 93.6614C203.579 93.6839 203.21 93.8189 202.914 94.0663C202.621 94.3175 202.397 94.6395 202.243 95.0321C202.093 95.4286 202.01 95.8578 201.994 96.3196C201.975 96.8572 202.045 97.3429 202.204 97.7767C202.367 98.2107 202.601 98.5581 202.907 98.8189C203.216 99.0799 203.583 99.2177 204.007 99.2326C204.393 99.246 204.711 99.1491 204.961 98.9418C205.211 98.7345 205.417 98.4574 205.581 98.1107C205.745 97.7639 205.891 97.3881 206.018 96.9832L206.477 95.5665C206.77 94.6671 207.168 93.9609 207.671 93.4478C208.174 92.9348 208.818 92.6919 209.601 92.7193C210.252 92.742 210.814 92.9379 211.286 93.3069C211.762 93.6798 212.124 94.17 212.372 94.7775C212.624 95.3889 212.736 96.0656 212.71 96.8076C212.684 97.5571 212.527 98.2187 212.237 98.7923C211.952 99.366 211.573 99.8151 211.099 100.14C210.625 100.468 210.094 100.631 209.507 100.63L209.554 99.2671ZM200.395 106.268C200.425 105.428 200.636 104.71 201.028 104.113C201.424 103.52 201.963 103.071 202.644 102.765C203.329 102.463 204.119 102.328 205.012 102.359C205.905 102.39 206.687 102.581 207.357 102.93C208.031 103.283 208.549 103.76 208.91 104.36C209.276 104.964 209.445 105.66 209.417 106.447C209.402 106.901 209.31 107.347 209.143 107.785C208.976 108.223 208.716 108.617 208.363 108.969C208.013 109.32 207.556 109.594 206.992 109.791C206.428 109.987 205.739 110.071 204.926 110.043L204.358 110.023L204.593 103.3L205.751 103.34L205.564 108.7C206.056 108.718 206.498 108.634 206.891 108.451C207.284 108.271 207.599 108.006 207.835 107.654C208.07 107.306 208.197 106.89 208.214 106.405C208.232 105.871 208.116 105.405 207.865 105.006C207.617 104.61 207.286 104.301 206.874 104.078C206.461 103.856 206.014 103.736 205.533 103.719L204.761 103.692C204.102 103.669 203.54 103.763 203.074 103.974C202.611 104.189 202.254 104.497 202.001 104.898C201.752 105.298 201.618 105.769 201.599 106.311C201.587 106.663 201.625 106.982 201.714 107.27C201.806 107.561 201.949 107.814 202.142 108.029C202.339 108.245 202.587 108.414 202.886 108.539L202.477 109.821C202.043 109.669 201.665 109.426 201.343 109.093C201.025 108.76 200.781 108.353 200.612 107.874C200.447 107.394 200.375 106.859 200.395 106.268ZM208.862 119.096L200.253 115.566L200.3 114.203L209.135 111.282L209.084 112.736L202.05 114.901L202.047 114.992L208.913 117.642L208.862 119.096ZM199.78 123.898C199.809 123.058 200.02 122.339 200.412 121.743C200.808 121.15 201.347 120.701 202.028 120.395C202.714 120.093 203.503 119.958 204.396 119.989C205.29 120.02 206.071 120.21 206.741 120.56C207.415 120.913 207.933 121.39 208.295 121.99C208.66 122.594 208.829 123.29 208.802 124.077C208.786 124.531 208.695 124.977 208.528 125.415C208.361 125.852 208.101 126.247 207.747 126.599C207.398 126.95 206.941 127.224 206.377 127.421C205.813 127.617 205.124 127.701 204.31 127.672L203.742 127.653L203.977 120.929L205.135 120.97L204.948 126.33C205.44 126.347 205.883 126.264 206.276 126.081C206.669 125.901 206.983 125.636 207.219 125.284C207.455 124.936 207.581 124.519 207.598 124.035C207.617 123.501 207.5 123.035 207.249 122.636C207.001 122.24 206.671 121.931 206.258 121.708C205.845 121.485 205.398 121.366 204.917 121.349L204.145 121.322C203.486 121.299 202.924 121.393 202.458 121.604C201.996 121.819 201.638 122.127 201.385 122.527C201.136 122.928 201.003 123.399 200.984 123.94C200.971 124.292 201.009 124.612 201.098 124.9C201.19 125.191 201.333 125.444 201.526 125.659C201.723 125.875 201.971 126.044 202.27 126.168L201.862 127.45C201.427 127.299 201.049 127.056 200.727 126.723C200.409 126.39 200.166 125.983 199.997 125.503C199.831 125.024 199.759 124.489 199.78 123.898ZM199.764 129.555L208.486 129.859L208.441 131.154L207.124 131.108L207.12 131.199C207.546 131.373 207.887 131.673 208.141 132.099C208.395 132.524 208.513 132.998 208.495 133.521C208.491 133.619 208.485 133.742 208.476 133.89C208.467 134.037 208.458 134.149 208.447 134.224L207.085 134.177C207.098 134.132 207.118 134.028 207.147 133.866C207.179 133.708 207.198 133.54 207.204 133.362C207.219 132.938 207.143 132.556 206.977 132.217C206.814 131.882 206.581 131.612 206.277 131.408C205.977 131.208 205.63 131.101 205.237 131.087L199.717 130.895L199.764 129.555ZM199.256 138.889C199.286 138.049 199.496 137.33 199.889 136.734C200.285 136.141 200.823 135.692 201.505 135.386C202.19 135.084 202.979 134.949 203.873 134.98C204.766 135.011 205.548 135.201 206.218 135.551C206.892 135.904 207.409 136.381 207.771 136.981C208.137 137.585 208.306 138.28 208.278 139.068C208.262 139.522 208.171 139.968 208.004 140.406C207.837 140.843 207.577 141.238 207.224 141.589C206.874 141.941 206.417 142.215 205.853 142.411C205.289 142.608 204.6 142.692 203.786 142.663L203.219 142.643L203.453 135.92L204.612 135.961L204.425 141.321C204.917 141.338 205.359 141.255 205.752 141.072C206.145 140.892 206.46 140.627 206.695 140.275C206.931 139.927 207.058 139.51 207.074 139.026C207.093 138.492 206.977 138.026 206.725 137.626C206.478 137.231 206.147 136.922 205.734 136.699C205.321 136.476 204.875 136.356 204.394 136.34L203.622 136.313C202.963 136.29 202.401 136.384 201.935 136.595C201.472 136.81 201.115 137.118 200.862 137.518C200.613 137.919 200.479 138.39 200.46 138.931C200.448 139.283 200.486 139.603 200.574 139.89C200.667 140.182 200.809 140.435 201.003 140.65C201.2 140.865 201.448 141.035 201.747 141.159L201.338 142.441C200.904 142.29 200.526 142.047 200.204 141.714C199.886 141.381 199.642 140.974 199.473 140.494C199.308 140.015 199.236 139.48 199.256 138.889Z" fill="black"/>
</g>
<g id="arrow">
<path id="Vector_5" d="M158.182 60C152.841 73.6204 116.898 138.488 113.612 143.084C110.326 147.681 103.343 149.214 97.7973 146.66C92.2518 144.106 90.4033 138.147 93.4841 133.55C96.7704 128.953 147.707 70.8963 158.182 60Z" fill="#01556A"/>
</g>
</g>
</svg>
