<svg width="100" height="99" viewBox="0 0 100 99" fill="none" xmlns="http://www.w3.org/2000/svg">
<g id="hambuger-menu">
<g id="Group">
<g id="Group_2">
<g id="bars">
<g id="Group_3">
<path id="Vector" d="M15.7002 31.7H84.7002C85.3002 31.7 85.7002 31.3 85.7002 30.7C85.7002 30.1 85.3002 29.7 84.7002 29.7H15.7002C15.1002 29.7 14.7002 30.1 14.7002 30.7C14.7002 31.3 15.2002 31.7 15.7002 31.7Z" fill="black"/>
<path id="Vector_2" d="M84.8003 49.0999H15.8003C15.2003 49.0999 14.8003 49.4999 14.8003 50.0999C14.8003 50.6999 15.2003 51.0999 15.8003 51.0999H84.8003C85.4003 51.0999 85.8003 50.6999 85.8003 50.0999C85.8003 49.4999 85.3003 49.0999 84.8003 49.0999Z" fill="black"/>
<path id="Vector_3" d="M84.8003 68.5H15.8003C15.2003 68.5 14.8003 68.9 14.8003 69.5C14.8003 70.1 15.2003 70.5 15.8003 70.5H84.8003C85.4003 70.5 85.8003 70.1 85.8003 69.5C85.8003 68.9 85.3003 68.5 84.8003 68.5Z" fill="black"/>
</g>
</g>
</g>
</g>
</g>
</svg>
