<svg width="160" height="100" viewBox="0 0 160 100" fill="none" xmlns="http://www.w3.org/2000/svg">
<g id="headphone-bold" clip-path="url(#clip0_198_45)">
<g id="headphone-system">
<g id="headphone">
<g id="Group">
<g id="Group_2">
<g id="Group_3">
<path id="Vector" d="M38.659 54.4335V89.116C38.659 90.4092 37.6641 91.4673 36.4205 91.3497C27.7154 90.1741 21 81.8268 21 71.7159C21 61.6051 27.7154 53.3754 36.4205 52.0822C37.6641 51.9646 38.659 53.0227 38.659 54.4335Z" fill="#01556A"/>
<path id="Vector_2" d="M44.0064 93.3485C42.5141 93.3485 41.2705 91.9377 41.2705 90.2917V53.2579C41.2705 51.4944 42.5141 50.2012 44.0064 50.2012C45.4987 50.2012 46.7423 51.612 46.7423 53.2579V90.2917C46.7423 91.9377 45.4987 93.3485 44.0064 93.3485Z" fill="#01556A"/>
</g>
<path id="Vector_3" d="M123.721 50.9068C123.721 52.2 123.72 53.4932 123.596 54.7865H119.244C119.368 53.4932 119.368 52.2 119.368 50.9068C119.368 46.9095 118.87 43.0297 118 39.2676H114.145C109.668 21.75 95.3666 9.0527 78.3294 9.0527C61.2922 9.0527 46.8666 21.75 42.3896 39.2676H38.5345C37.664 43.0297 37.1666 46.9095 37.1666 50.9068C37.1666 52.2 37.1666 53.4932 37.2909 54.7865H32.9383C32.814 53.4932 32.814 52.2 32.814 50.9068C32.9383 22.8081 53.2089 0 78.3294 0C103.45 0 123.721 22.8081 123.721 50.9068Z" fill="#01556A"/>
<g id="Group_4">
<path id="Vector_4" d="M118 54.4335V89.116C118 90.4092 118.995 91.4673 120.238 91.3497C128.944 90.1741 135.659 81.8268 135.659 71.7159C135.659 61.6051 128.944 53.3754 120.238 52.0822C118.995 51.9646 118 53.0227 118 54.4335Z" fill="#01556A"/>
<path id="Vector_5" d="M112.653 93.3485C114.145 93.3485 115.388 91.9377 115.388 90.2917V53.2579C115.388 51.4944 114.145 50.2012 112.653 50.2012C111.16 50.2012 109.917 51.612 109.917 53.2579V90.2917C109.792 91.9377 111.036 93.3485 112.653 93.3485Z" fill="#01556A"/>
</g>
</g>
</g>
</g>
<g id="sound">
<path id="Vector_6" d="M20.0164 55C10.4164 64.9 10.7164 80.6 20.6164 90.2" stroke="#FFA73F" stroke-width="2" stroke-miterlimit="10"/>
<path id="Vector_7" d="M140.1 90C148.6 79.2 146.8 63.6 136 55" stroke="#FFA73F" stroke-width="2" stroke-miterlimit="10"/>
<path id="Vector_8" d="M11.6928 45C-2.90716 60.1 -2.50716 84.1 12.5928 98.7" stroke="#FFA73F" stroke-width="2" stroke-miterlimit="10"/>
<path id="Vector_9" d="M150.2 98.3C163.2 81.9 160.5 58 144 45" stroke="#FFA73F" stroke-width="2" stroke-miterlimit="10"/>
</g>
</g>
<path id="text" d="M72.56 69.2C72.3333 69.28 71.9267 69.3867 71.34 69.52C70.7533 69.64 70.2933 69.72 69.96 69.76L69.74 68.36C70.46 68.2133 71.2067 67.9533 71.98 67.58C72.7667 67.1933 73.4067 66.7933 73.9 66.38H73.92L75.5 66.6V77.6L77.78 77.82V79H70.16V77.82L72.56 77.62V69.2ZM84.5402 79.2C82.8335 79.2 81.5268 78.6333 80.6202 77.5C79.7268 76.3533 79.2802 74.8 79.2802 72.84C79.2802 71.4533 79.5402 70.28 80.0602 69.32C80.5802 68.3467 81.2668 67.62 82.1202 67.14C82.9868 66.6467 83.9468 66.4 85.0002 66.4C86.7202 66.4 88.0135 66.9467 88.8802 68.04C89.7468 69.12 90.1802 70.6533 90.1802 72.64C90.1802 74.0133 89.9268 75.2 89.4202 76.2C88.9268 77.1867 88.2535 77.9333 87.4002 78.44C86.5468 78.9467 85.5935 79.2 84.5402 79.2ZM84.7402 78C85.5802 78 86.1935 77.5733 86.5802 76.72C86.9802 75.8533 87.1802 74.5667 87.1802 72.86C87.1802 71.0467 86.9935 69.72 86.6202 68.88C86.2602 68.0267 85.6402 67.6 84.7602 67.6C83.1068 67.6 82.2802 69.2733 82.2802 72.62C82.2802 74.4067 82.4735 75.7533 82.8602 76.66C83.2602 77.5533 83.8868 78 84.7402 78Z" fill="#01556A"/>
</g>
<defs>
<clipPath id="clip0_198_45">
<rect width="160" height="100" fill="white"/>
</clipPath>
</defs>
</svg>
