<?xml version="1.0" encoding="utf-8"?>
<!-- Generator: Adobe Illustrator 19.0.0, SVG Export Plug-In . SVG Version: 6.00 Build 0)  -->
<svg version="1.1" xmlns="http://www.w3.org/2000/svg" xmlns:xlink="http://www.w3.org/1999/xlink" x="0px" y="0px"
	 viewBox="0 0 129.6 87.5" style="enable-background:new 0 0 129.6 87.5;" xml:space="preserve">
<style type="text/css">
	.st0{fill:#FFA73F;}
	.st1{font-family:'MyriadPro-Regular';}
	.st2{font-size:12px;}
	.st3{fill:none;stroke:#FFA73F;stroke-width:2;stroke-miterlimit:10;}
</style>
<g id="BACKGROUND">
</g>
<g id="OBJECTS">
	<g>
		<g>
			<g>
				<path class="st0" d="M31,46.3v29.5c0,1.1-0.8,2-1.8,1.9c-7-1-12.4-8.1-12.4-16.7s5.4-15.6,12.4-16.7C30.2,44.2,31,45.1,31,46.3z
					"/>
				<path class="st0" d="M35.3,79.4L35.3,79.4c-1.2,0-2.2-1.2-2.2-2.6V45.3c0-1.5,1-2.6,2.2-2.6l0,0c1.2,0,2.2,1.2,2.2,2.6v31.5
					C37.5,78.2,36.5,79.4,35.3,79.4z"/>
			</g>
			<path class="st0" d="M99.4,43.3c0,1.1,0,2.2-0.1,3.3h-3.5c0.1-1.1,0.1-2.2,0.1-3.3c0-3.4-0.4-6.7-1.1-9.9h-3.1
				C88.1,18.5,76.6,7.7,62.9,7.7S37.6,18.5,34,33.4h-3.1c-0.7,3.2-1.1,6.5-1.1,9.9c0,1.1,0,2.2,0.1,3.3h-3.5
				c-0.1-1.1-0.1-2.2-0.1-3.3C26.4,19.4,42.7,0,62.9,0S99.4,19.4,99.4,43.3z"/>
			<g>
				<path class="st0" d="M94.8,46.3v29.5c0,1.1,0.8,2,1.8,1.9c7-1,12.4-8.1,12.4-16.7s-5.4-15.6-12.4-16.7
					C95.6,44.2,94.8,45.1,94.8,46.3z"/>
				<path class="st0" d="M90.5,79.4L90.5,79.4c1.2,0,2.2-1.2,2.2-2.6V45.3c0-1.5-1-2.6-2.2-2.6l0,0c-1.2,0-2.2,1.2-2.2,2.6v31.5
					C88.2,78.2,89.2,79.4,90.5,79.4z"/>
			</g>
		</g>
	</g>
	<text transform="matrix(1 0 0 1 59.3977 76.2169)" class="st0 st1 st2">6</text>
	<path class="st3" d="M120.3,86.6c13-16.4,10.3-40.3-6.2-53.3"/>
	<path class="st3" d="M114.7,77.4c8.5-10.8,6.7-26.4-4.1-35"/>
	<path class="st3" d="M11.7,33.1C-2.9,48.2-2.5,72.2,12.6,86.8"/>
	<path class="st3" d="M16.4,42.8C6.8,52.7,7.1,68.4,17,78"/>
</g>
</svg>
