<?xml version="1.0" encoding="utf-8"?>
<!-- Generator: Adobe Illustrator 19.0.0, SVG Export Plug-In . SVG Version: 6.00 Build 0)  -->
<svg version="1.1"
	 id="Layer_1" xmlns:rdf="http://www.w3.org/1999/02/22-rdf-syntax-ns#" xmlns:inkscape="http://www.inkscape.org/namespaces/inkscape" xmlns:cc="http://creativecommons.org/ns#" xmlns:dc="http://purl.org/dc/elements/1.1/" xmlns:svg="http://www.w3.org/2000/svg" xmlns:sodipodi="http://sodipodi.sourceforge.net/DTD/sodipodi-0.dtd"
	 xmlns="http://www.w3.org/2000/svg" xmlns:xlink="http://www.w3.org/1999/xlink" x="0px" y="0px" viewBox="-249 340 88 88"
	 style="enable-background:new -249 340 88 88;" xml:space="preserve">
<style type="text/css">
	.st0{fill:#01556A;}
</style>
<g transform="translate(0,-952.36218)">
	<path class="st0" d="M-205,1292.4c-11.6,0-22.9,5.1-29.3,10.4l0.8,1c-9.5,8.1-15.6,20.1-15.6,33.5c0,8.1,2.2,15.6,6,22.2
		c0,3.5,0,6.9,0,10.4c3.4,2,6.7,4,10,6c0.2,1.1,0.8,2.1,1.5,2.9c0.9,0.9,2.1,1.6,3.4,1.6s2.6-0.7,3.5-1.6s1.5-2.1,1.5-3.4v-34
		c0-1.3-0.6-2.6-1.5-3.5c-0.9-0.9-2.1-1.5-3.5-1.5c-1.3,0-2.5,0.6-3.4,1.5c-0.8,0.8-1.3,1.7-1.5,2.8c-3.4,1.7-6.7,3.4-10.1,5
		c0,3.2,0,6.3,0,9.5c-2.6-5.4-4-11.5-4-17.9c0-12.8,5.7-24.3,14.8-32l0.5,0.6c5.6-4.7,16.3-9.5,26.7-9.5c10.4,0,21.1,4.9,26.7,9.5
		l0.5-0.6c9.1,7.7,14.8,19.2,14.8,32c0,6.4-1.4,12.5-4,17.9c0-3.2,0-6.4,0-9.6c-3.4-1.7-6.7-3.4-10.1-5c-0.2-1.1-0.7-2.1-1.5-2.8
		c-0.9-0.9-2.1-1.5-3.5-1.5c-1.3,0-2.5,0.6-3.4,1.5c-0.9,0.9-1.6,2.1-1.6,3.5v34c0,1.3,0.7,2.5,1.6,3.4s2.1,1.6,3.4,1.6
		s2.6-0.7,3.5-1.6c0.8-0.8,1.3-1.7,1.5-2.8c3.4-2,6.7-4,10.1-6c0-3.5,0-6.9,0-10.4c3.8-6.5,6-14.1,6-22.2c0-13.4-6.1-25.5-15.6-33.5
		l0.8-1C-182.1,1297.4-193.4,1292.4-205,1292.4z M-228,1338.4c0.7,0,1.5,0.3,2.1,0.9s0.9,1.4,0.9,2.1v34c0,0.7-0.3,1.4-0.9,2
		s-1.4,1-2.1,1s-1.4-0.4-2-1c-0.6-0.6-1-1.4-1-2v-34c0-0.7,0.4-1.5,1-2.1S-228.7,1338.4-228,1338.4z M-182,1338.4
		c0.7,0,1.5,0.3,2.1,0.9s0.9,1.4,0.9,2.1v34c0,0.7-0.3,1.4-0.9,2s-1.4,1-2.1,1s-1.4-0.4-2-1c-0.6-0.6-1-1.4-1-2v-34
		c0-0.7,0.4-1.5,1-2.1S-182.7,1338.4-182,1338.4z M-233,1343v30.6l-8-4.8V1347L-233,1343z M-177,1343l8,4v21.8l-8,4.8V1343z"/>
</g>
</svg>
