<?xml version="1.0" encoding="utf-8"?>
<!-- Generator: Adobe Illustrator 19.0.0, SVG Export Plug-In . SVG Version: 6.00 Build 0)  -->
<svg version="1.1" id="Layer_1" xmlns="http://www.w3.org/2000/svg" xmlns:xlink="http://www.w3.org/1999/xlink" x="0px" y="0px"
	 viewBox="700.9 366.5 129.5 87.5" style="enable-background:new 700.9 366.5 129.5 87.5;" xml:space="preserve">
<style type="text/css">
	.st0{fill:#01556A;}
</style>
<g id="BACKGROUND">
</g>
<g>
	<g>
		<path class="st0" d="M731.9,412.8v29.5c0,1.1-0.8,2-1.8,1.9c-7-1-12.4-8.1-12.4-16.7s5.4-15.6,12.4-16.7
			C731.1,410.8,731.9,411.7,731.9,412.8z"/>
		<path class="st0" d="M736.2,445.9L736.2,445.9c-1.2,0-2.2-1.2-2.2-2.6v-31.5c0-1.5,1-2.6,2.2-2.6l0,0c1.2,0,2.2,1.2,2.2,2.6v31.5
			C738.4,444.8,737.4,445.9,736.2,445.9z"/>
	</g>
	<path class="st0" d="M800.3,409.8c0,1.1,0,2.2-0.1,3.3h-3.5c0.1-1.1,0.1-2.2,0.1-3.3c0-3.4-0.4-6.7-1.1-9.9h-3.1
		c-3.6-14.8-15.1-25.7-28.8-25.7s-25.2,10.9-28.9,25.7h-3.1c-0.7,3.2-1.1,6.5-1.1,9.9c0,1.1,0,2.2,0.1,3.3h-3.5
		c-0.1-1.1-0.1-2.2-0.1-3.3c0-23.9,16.3-43.3,36.5-43.3C783.9,366.5,800.3,385.9,800.3,409.8z"/>
	<g>
		<path class="st0" d="M795.7,412.8v29.5c0,1.1,0.8,2,1.8,1.9c7-1,12.4-8.1,12.4-16.7s-5.4-15.6-12.4-16.7
			C796.5,410.8,795.7,411.7,795.7,412.8z"/>
		<path class="st0" d="M791.4,445.9L791.4,445.9c1.2,0,2.2-1.2,2.2-2.6v-31.5c0-1.5-1-2.6-2.2-2.6l0,0c-1.2,0-2.2,1.2-2.2,2.6v31.5
			C789.1,444.8,790.1,445.9,791.4,445.9z"/>
	</g>
</g>
</svg>
