<?xml version="1.0" encoding="utf-8"?>
<!-- Generator: Adobe Illustrator 19.0.0, SVG Export Plug-In . SVG Version: 6.00 Build 0)  -->
<svg version="1.1" id="Layer_1" xmlns="http://www.w3.org/2000/svg" xmlns:xlink="http://www.w3.org/1999/xlink" x="0px" y="0px"
	 viewBox="-358.4 341.9 124.8 67.3" style="enable-background:new -358.4 341.9 124.8 67.3;" xml:space="preserve">
<style type="text/css">
	.st0{fill:#01556A;}
	.st1{fill:none;stroke:#01556A;stroke-width:1.5;stroke-linecap:round;stroke-miterlimit:10;}
	.st2{fill:none;stroke:#01556A;stroke-width:0.75;stroke-linecap:round;stroke-miterlimit:10;}
	.st3{fill:none;stroke:#01556A;stroke-width:0.5;stroke-miterlimit:10;}
</style>
<g>
	<path class="st0" d="M-315.3,342c-0.3-0.2-0.7-0.1-1,0.1l-26.4,18.5h-6.9c-4.9,0-8.9,4-8.9,8.9v12.1c0,4.9,4,8.9,8.9,8.9h6.8
		l26.3,18.5c0.4,0.3,1.1,0.3,1.4-0.2c0.1-0.2,0.2-0.4,0.2-0.6v-65.3C-314.8,342.5-315,342.2-315.3,342z M-316.7,406.3l-24.6-17.3
		c-0.2-0.3-0.5-0.5-0.8-0.5h-7.3c-3.8,0-6.9-3.1-6.9-6.9v-12.1c0-3.8,3.1-6.9,6.9-6.9h7.3c0.3,0,0.6-0.2,0.8-0.5l24.6-17.3V406.3z"
		/>
	<path class="st1" d="M-304.1,358.9c0,0,11.3,16,0,33.3"/>
	<path class="st2" d="M-297.8,349.8c0,0,17.5,24.7,0,51.5"/>
	<path class="st2" d="M-289.8,344.8c0,0,21,29.4,0,61.5"/>
</g>
<g>
	<path id="b_2_" class="st3" d="M-233.9,366.5c-0.2-2-0.6-4.1-1.2-6.1c-0.6-2.3-1.7-4.3-3.1-6.2c-1.2-1.5-2.6-2.6-4.3-3.6
		c-1.7-0.9-3.4-1.7-5.3-2.3c-1.9-0.5-3.9-0.6-5.9-0.1c-2,0.4-3.9,1.2-5.6,2.3c-1.2,0.8-2.3,1.8-3.3,2.9c-1.3,1.4-2.3,3-3.1,4.8
		c-0.9,2-1.6,4-2,6.2c-0.4,2.2-0.7,4.4-0.8,6.6c-0.1,2.1,0.1,4,0.6,5.9c0.5,2.2,1.4,4.1,2.6,5.9c1.2,1.9,2.7,3.5,4.5,4.8
		c1.2,0.9,2.2,1.9,3.2,2.9c1.5,1.6,2.8,3.3,3.9,5.2c1.1,1.8,2.5,3.5,4,5c0.9,0.9,2,1.5,3.2,1.8c2.2,0.7,4.3,0.6,6.4-0.3
		c1.1-0.5,2-1.1,2.6-2c1.3-1.8,2.2-3.7,2.7-5.8c0.3-1,0.5-2,0.6-3"/>
</g>
<g>
	<path id="a_2_" class="st3" d="M-238.7,367c-0.6-2-1.1-3.4-1.5-4.4c-0.6-1.4-1.4-2.8-2.4-4.1c-0.5-0.6-1.5-1.6-3.1-2.8
		c-1.6-1.1-2.8-1.8-3.7-2c-1.4-0.4-2.8-0.4-4.4,0c-1.5,0.4-2.8,1.2-3.9,2.2c-1.1,1-2.2,2.7-3.4,4.9c-1.2,2.3-1.8,4.2-2,5.7
		c-0.4,3.3-0.2,6,0.3,8.2c0.5,2,1.5,4,3,5.8c0.7,0.8,2.7,2.8,6.1,6.1 M-242.7,368.3c-2.2-0.6-4.3-0.6-6.3,0
		c-0.3,0.1-0.8,0.3-1.7,0.7l-1.1,0.8c-0.5,0.4-0.9,0.8-1.2,1.1c-0.3,0.3-0.5,0.7-0.8,1.2c-0.2,0.3-0.4,0.8-0.6,1.3 M-241.7,369.6
		c0-1.9-1.2-3.4-3.7-4.7c-2.5-1.3-5.5-1.9-9-1.9 M-238.5,367.8c0.3,1.6-0.2,2.7-1.5,3.4c-0.8,0.4-1.7,0.4-2.6,0.2
		c-0.6-0.1-1.1,0.1-1.4,0.6c-0.9,1.2-0.9,2.5,0,3.9c1,1.6,2.1,3.3,3.1,5c0.1,0.2,0.2,0.5,0.3,0.8c0.1,0.3,0.1,0.7,0.2,1"/>
</g>
</svg>
