<svg width="50" height="91" viewBox="0 0 50 91" fill="none" xmlns="http://www.w3.org/2000/svg">
<path d="M41.4062 0.104248H8.59375C3.85539 0.104248 0 3.97723 0 8.73797V81.4705C0 86.2313 3.85539 90.1043 8.59375 90.1043H41.4062C46.1446 90.1043 50 86.2313 50 81.4705V8.73797C50 3.97723 46.1446 0.104248 41.4062 0.104248ZM2.77778 8.73797C2.77778 5.51599 5.38669 2.89495 8.59375 2.89495H41.4062C44.6133 2.89495 47.2222 5.51599 47.2222 8.73797V10.2205H2.77778V8.73797ZM47.2222 81.4705C47.2222 84.6925 44.6133 87.3136 41.4062 87.3136H8.59375C5.38669 87.3136 2.77778 84.6925 2.77778 81.4705V70.9182H47.2222V81.4705Z" fill="#01556A"/>
<path d="M24.6528 5.33667H17.0139C16.2469 5.33667 15.625 5.96144 15.625 6.73202C15.625 7.50259 16.2469 8.12737 17.0139 8.12737H24.6528C25.4198 8.12737 26.0417 7.50259 26.0417 6.73202C26.0417 5.96144 25.4198 5.33667 24.6528 5.33667Z" fill="#FFA73F"/>
<path d="M31.5972 5.33667H29.8611C29.094 5.33667 28.4722 5.96144 28.4722 6.73202C28.4722 7.50259 29.094 8.12737 29.8611 8.12737H31.5972C32.3642 8.12737 32.9861 7.50259 32.9861 6.73202C32.9861 5.96144 32.3642 5.33667 31.5972 5.33667Z" fill="#FFA73F"/>
<path d="M24.9999 85.2203C28.2545 85.2203 30.9027 82.5601 30.9027 79.2901C30.9027 76.0201 28.2545 73.3599 24.9999 73.3599C21.7454 73.3599 19.0972 76.0201 19.0972 79.2901C19.0972 82.5601 21.7454 85.2203 24.9999 85.2203ZM24.9999 75.4529C27.1057 75.4529 28.8194 77.1743 28.8194 79.2901C28.8194 81.4059 27.1057 83.1273 24.9999 83.1273C22.8942 83.1273 21.1805 81.4059 21.1805 79.2901C21.1805 77.1743 22.8942 75.4529 24.9999 75.4529Z" fill="#FFA73F"/>
</svg>
