<svg width="80" height="80" viewBox="0 0 80 80" fill="none" xmlns="http://www.w3.org/2000/svg">
<rect opacity="0.4" width="80" height="80" rx="40" fill="#01556A"/>
<path d="M40 0C32.0888 0 24.3552 2.34596 17.7772 6.74121C11.1992 11.1365 6.07234 17.3836 3.04484 24.6927C0.0173314 32.0017 -0.774802 40.0444 0.768607 47.8036C2.31202 55.5628 6.12165 62.6902 11.7157 68.2843C17.3098 73.8783 24.4372 77.688 32.1964 79.2314C39.9556 80.7748 47.9983 79.9827 55.3073 76.9552C62.6164 73.9277 68.8635 68.8008 73.2588 62.2228C77.654 55.6448 80 47.9112 80 40C80 34.7471 78.9654 29.5457 76.9552 24.6927C74.945 19.8396 71.9986 15.4301 68.2843 11.7157C64.5699 8.00138 60.1604 5.05501 55.3073 3.04482C50.4543 1.03463 45.2529 0 40 0ZM40 64C39.2089 64 38.4355 63.7654 37.7777 63.3259C37.1199 62.8863 36.6072 62.2616 36.3045 61.5307C36.0017 60.7998 35.9225 59.9955 36.0769 59.2196C36.2312 58.4437 36.6122 57.731 37.1716 57.1716C37.731 56.6121 38.4437 56.2312 39.2197 56.0768C39.9956 55.9225 40.7998 56.0017 41.5307 56.3045C42.2617 56.6072 42.8864 57.1199 43.3259 57.7777C43.7654 58.4355 44 59.2089 44 60C44 61.0608 43.5786 62.0783 42.8284 62.8284C42.0783 63.5786 41.0609 64 40 64ZM45.82 40C43.38 42.14 42 43.52 42 46C42 46.5304 41.7893 47.0391 41.4142 47.4142C41.0392 47.7893 40.5304 48 40 48C39.4696 48 38.9609 47.7893 38.5858 47.4142C38.2107 47.0391 38 46.5304 38 46C38 41.64 40.72 39.16 43.12 36.96C45.52 34.76 48 32.48 48 28C48 25.8783 47.1572 23.8434 45.6569 22.3431C44.1566 20.8428 42.1217 20 40 20C37.8783 20 35.8435 20.8428 34.3432 22.3431C32.8429 23.8434 32 25.8783 32 28C32 28.5304 31.7893 29.0391 31.4142 29.4142C31.0392 29.7893 30.5304 30 30 30C29.4696 30 28.9609 29.7893 28.5858 29.4142C28.2107 29.0391 28 28.5304 28 28C28 24.8174 29.2643 21.7651 31.5147 19.5147C33.7652 17.2643 36.8174 16 40 16C43.1826 16 46.2349 17.2643 48.4853 19.5147C50.7357 21.7651 52 24.8174 52 28C52 34.24 48.58 37.38 45.82 40Z" fill="#FFA73F"/>
</svg>
