<svg width="80" height="80" viewBox="0 0 80 80" fill="none" xmlns="http://www.w3.org/2000/svg">
<path d="M0 0H40C62.0914 0 80 17.9086 80 40V40C80 62.0914 62.0914 80 40 80V80C17.9086 80 0 62.0914 0 40V0Z" fill="#FFA73F"/>
<path d="M40 0C26.7 0 13.3 0 0 0C0 13.3 0 26.7 0 40C0 62.1 17.9 80 40 80C62.1 80 80 62.1 80 40C80 17.9 62.1 0 40 0ZM45 64C45 66.8 42.8 69 40 69C37.2 69 35 66.8 35 64C35 61.2 37.2 59 40 59C42.8 59 45 61.2 45 64ZM49 44.6C46.6 46 45 48.6 45 51.5C45 54.3 42.8 56.5 40 56.5C37.2 56.5 35 54.3 35 51.5C35 44.8 38.6 39 44 35.9C46.4 34.5 48 31.9 48 29C48 24.6 44.4 21 40 21C35.6 21 32 24.6 32 29C32 31.8 29.8 34 27 34C24.2 34 22 31.8 22 29C22 19.1 30.1 11 40 11C49.9 11 58 19.1 58 29C58 35.7 54.4 41.5 49 44.6Z" fill="#01556A"/>
</svg>
