<?xml version="1.0" encoding="utf-8"?>
<!-- Generator: Adobe Illustrator 19.0.0, SVG Export Plug-In . SVG Version: 6.00 Build 0)  -->
<svg version="1.1" id="Layer_1" xmlns="http://www.w3.org/2000/svg" xmlns:xlink="http://www.w3.org/1999/xlink" x="0px" y="0px"
	 viewBox="-213.5 355.1 124.9 67.3" style="enable-background:new -213.5 355.1 124.9 67.3;" xml:space="preserve">
<style type="text/css">
	.st0{fill:none;stroke:#01556A;stroke-width:0.5;stroke-miterlimit:10;}
	.st1{fill:#01556A;}
	.st2{fill:none;stroke:#01556A;stroke-width:1.5;stroke-linecap:round;stroke-miterlimit:10;}
	.st3{fill:none;stroke:#01556A;stroke-width:0.75;stroke-linecap:round;stroke-miterlimit:10;}
</style>
<g>
	<g>
		<path id="b" class="st0" d="M-213.2,379.7c0.2-2,0.6-4.1,1.2-6.1c0.6-2.3,1.7-4.3,3.1-6.2c1.2-1.5,2.6-2.6,4.3-3.6
			c1.7-0.9,3.5-1.7,5.4-2.3c2-0.5,3.9-0.6,6-0.1c2,0.4,3.9,1.2,5.6,2.3c1.2,0.8,2.3,1.8,3.3,2.9c1.3,1.4,2.3,3,3.1,4.8
			c0.9,2,1.6,4,2,6.2c0.4,2.2,0.7,4.5,0.8,6.7c0.1,2.1-0.1,4.1-0.6,6c-0.5,2.2-1.4,4.1-2.6,5.9c-1.2,1.9-2.7,3.5-4.5,4.8
			c-1.2,0.9-2.2,1.9-3.2,2.9c-1.5,1.6-2.8,3.3-3.9,5.2c-1.1,1.8-2.5,3.5-4.1,5c-0.9,0.9-2,1.5-3.2,1.8c-2.2,0.7-4.3,0.6-6.4-0.3
			c-1.1-0.5-2-1.2-2.6-2c-1.3-1.8-2.2-3.7-2.7-5.8c-0.3-1-0.5-2-0.6-3"/>
	</g>
	<g>
		<path id="a" class="st0" d="M-208.4,380.1c0.6-2,1.1-3.5,1.5-4.4c0.6-1.4,1.4-2.8,2.4-4.1c0.5-0.6,1.5-1.6,3.1-2.9
			c1.6-1.1,2.8-1.8,3.7-2c1.4-0.4,2.9-0.4,4.4,0c1.5,0.4,2.8,1.2,3.9,2.2c1.1,1,2.2,2.7,3.4,4.9c1.2,2.3,1.8,4.2,2,5.7
			c0.4,3.3,0.2,6-0.3,8.2c-0.5,2-1.5,4-3,5.9c-0.7,0.8-2.7,2.8-6.1,6.1 M-205.4,382.7c0-1.9,1.2-3.4,3.7-4.8c2.5-1.3,5.5-1.9,9-1.9
			 M-204.4,381.4c2.2-0.6,4.3-0.6,6.3,0c0.3,0.1,0.8,0.3,1.7,0.7l1.1,0.8c0.5,0.4,0.9,0.8,1.2,1.1c0.3,0.3,0.5,0.7,0.8,1.2
			c0.2,0.3,0.4,0.8,0.6,1.3 M-208.6,381c-0.3,1.6,0.2,2.7,1.5,3.4c0.8,0.4,1.7,0.4,2.6,0.2c0.6-0.1,1.1,0.1,1.4,0.6
			c0.9,1.2,0.9,2.5,0,3.9c-1,1.6-2.1,3.3-3.1,5c-0.1,0.2-0.2,0.5-0.3,0.8c-0.1,0.3-0.1,0.7-0.2,1"/>
	</g>
</g>
<path class="st1" d="M-131.8,422.3c0.3,0.2,0.7,0.1,1-0.1l26.4-18.5h6.9c4.9,0,8.9-4,8.9-8.9v-12.1c0-4.9-4-8.9-8.9-8.9h-6.8
	l-26.3-18.5c-0.4-0.3-1.1-0.3-1.4,0.2c-0.1,0.2-0.2,0.4-0.2,0.6v65.3C-132.3,421.8-132.1,422.1-131.8,422.3z M-130.3,358l24.6,17.3
	c0.2,0.3,0.5,0.5,0.8,0.5h7.3c3.8,0,6.9,3.1,6.9,6.9v12.1c0,3.8-3.1,6.9-6.9,6.9h-7.3c-0.3,0-0.6,0.2-0.8,0.5l-24.6,17.3V358z"/>
<path class="st2" d="M-142.9,405.3c0,0-11.3-16,0-33.3"/>
<path class="st3" d="M-149.3,414.5c0,0-17.5-24.7,0-51.5"/>
<path class="st3" d="M-157.3,419.5c0,0-21-29.4,0-61.5"/>
</svg>
