<svg width="101" height="100" viewBox="0 0 101 100" fill="none" xmlns="http://www.w3.org/2000/svg">
<path d="M59.9949 100H98.8116V91.6185H95.5425V87.2509C96.2915 85.815 101.116 76.0301 99.791 64.8023C99.7615 63.1619 98.6033 60.0578 94.4346 60.0578C93.1849 60.0578 92.2498 60.6 91.5496 61.3503C90.6145 60.2832 88.9246 59.3272 86.0322 59.3272C85.8003 59.3272 85.5846 59.3468 85.3675 59.3688V0H0.0200195V93.3526H59.9949V100ZM96.5958 93.3526V98.2659H62.2107V93.3526H96.5958ZM86.0322 61.059C89.4889 61.059 90.161 62.8081 90.2896 63.378C89.8169 64.5052 89.6381 65.5457 89.6012 65.7896L91.8022 65.9919C92.0607 64.2971 93.0756 61.7896 94.4346 61.7896C97.4083 61.7896 97.5678 64.5168 97.5796 64.8925C98.9357 76.4127 93.47 86.6358 93.4153 86.7376L93.3267 86.9006V91.6185H65.109V86.526L64.236 86.378C64.1325 86.3607 53.9073 84.5584 53.9073 78.7491C53.9073 76.3896 53.5838 73.6671 53.2706 71.0347C52.9072 67.9757 52.4138 63.8231 53.0357 62.9538C53.8423 62.9711 55.1865 63.4162 56.423 64.4069C57.7584 65.4763 59.9151 67.9746 59.3479 72.6775L61.5533 72.8405C61.7099 71.541 61.6715 70.3896 61.5105 69.3619H61.5607V40.4358C61.5607 40.422 61.5238 39.0786 62.5623 38.2428C63.1472 37.7711 64.0085 37.5329 65.1208 37.5329C66.208 37.5329 67.0087 37.7595 67.5671 38.2254C68.6056 39.0925 68.4977 40.5364 68.4933 40.6104V63.2601V65.0324H70.7091V63.2601C70.7091 61.6613 73.2159 60.0358 75.0166 60.0358C78.6255 60.0358 80.0333 61.9364 80.4454 62.6786C79.9624 63.4913 79.7482 64.1538 79.726 64.2254L81.8798 64.6324C81.8931 64.5977 83.0187 61.059 86.0322 61.059ZM51.0636 71.1942C51.3709 73.7873 51.69 76.4694 51.69 78.748C51.69 79.0301 51.7254 79.296 51.7594 79.563H10.8702V8.52832H74.5188V58.3272C73.2248 58.4416 71.8318 58.9803 70.7106 59.7757L70.7091 40.6751C70.7165 40.5861 70.8952 38.4809 69.2009 37.052C68.2141 36.2197 66.8418 35.7988 65.1223 35.7988C63.3777 35.7988 61.9773 36.2197 60.958 37.0497C59.2666 38.4254 59.3449 40.4162 59.3479 40.4671V64.5064C58.884 63.9549 58.4157 63.5202 58.0095 63.1954C56.3787 61.8902 54.3431 61.1249 52.7211 61.2266C52.21 61.2543 51.7579 61.4381 51.4108 61.7572C50.1492 62.9214 50.4403 65.9468 51.0636 71.1942ZM2.23584 91.6185V1.7341H83.1517V60.0173C82.6213 60.296 82.1678 60.6393 81.7764 61.0081C80.8295 59.9214 79.2149 58.7908 76.7332 58.4243V6.79422H8.65433V81.2971H52.2498C54.1525 85.5584 60.5281 87.3665 62.8932 87.896V91.6185H61.1028H59.9949H2.23584Z" fill="#01556A"/>
</svg>
